<svg width="280" height="56" viewBox="0 0 280 56" fill="none" xmlns="http://www.w3.org/2000/svg">
<path d="M106.918 45.6298V50.2223H108.548V41.0374H106.918V45.6298Z" fill="white"/>
<path d="M98.4727 45.6298V50.2223H105.435L105.361 48.9631L100.176 48.8149L100.101 41.0374H98.4727V45.6298Z" fill="white"/>
<path d="M93.8092 41.1366C93.741 41.1899 93.6981 43.0077 93.7114 45.1735C93.7262 47.3394 93.787 49.363 93.8477 49.6697L93.9573 50.2282L95.5128 50.2223V41.0374C94.2877 41.0374 93.8773 41.0818 93.8092 41.1366Z" fill="white"/>
<path d="M59.2168 45.6298V50.2223H60.8464C60.8464 45.6298 60.8968 44.298 60.9575 44.2995C61.0182 44.301 61.3175 44.7173 61.6227 45.2254C61.9278 45.7335 62.6286 46.815 63.1782 47.6298C63.9989 48.8445 64.2463 49.1112 64.55 49.1112C64.8567 49.1112 65.1278 48.8075 66.1322 47.3335C66.7989 46.3557 67.3485 45.5054 67.3544 45.4446C67.3603 45.3839 67.5485 45.0891 67.7722 44.7884L68.1796 44.2447L68.3277 50.1482L70.0314 50.2223L69.9573 41.1114C68.7929 41.0299 68.5633 41.0862 68.384 41.2877C68.2522 41.4344 67.4255 42.7218 66.547 44.1484C65.6685 45.5735 64.8759 46.8298 64.787 46.9379C64.6567 47.0964 64.5396 47.0209 64.2063 46.5676C63.9752 46.255 63.0597 44.8832 62.1693 43.5188L60.5501 41.0374H59.2168V45.6298Z" fill="white"/>
<path d="M127.804 41.0788C127.437 41.1825 126.887 41.4151 126.582 41.5958C126.262 41.7869 125.9 42.1765 125.73 42.5188C125.567 42.8447 125.434 43.3113 125.434 43.5558C125.434 43.8002 125.534 44.2506 125.659 44.5557C125.788 44.8728 126.105 45.2535 126.4 45.4446C126.682 45.6283 127.531 45.9424 128.285 46.1424C129.039 46.3424 129.89 46.5735 130.174 46.6549C130.459 46.7379 130.842 46.9408 131.026 47.1068C131.21 47.2712 131.359 47.5749 131.359 47.7779C131.359 47.9823 131.192 48.3156 130.989 48.5186C130.785 48.723 130.368 48.9319 130.063 48.9838C129.758 49.0356 129.075 49.046 128.545 49.0075C127.951 48.966 127.241 48.7867 126.693 48.5423C126.204 48.3245 125.804 48.163 125.804 48.1838C125.804 48.206 125.721 48.3719 125.619 48.5556C125.517 48.7393 125.434 49.0223 125.434 49.1852C125.434 49.3897 125.628 49.5704 126.063 49.7689C126.41 49.9274 127.194 50.1363 127.804 50.2311C128.442 50.3304 129.324 50.3615 129.878 50.3022C130.408 50.2474 131.075 50.1022 131.359 49.9822C131.644 49.8608 132.097 49.5497 132.365 49.2889C132.635 49.0252 132.919 48.5512 133.004 48.2223C133.088 47.8964 133.11 47.4297 133.054 47.1853C132.998 46.9409 132.835 46.5749 132.693 46.3705C132.549 46.1675 132.273 45.9216 132.081 45.8253C131.888 45.729 131.496 45.5542 131.211 45.4372C130.927 45.3202 130.159 45.1068 129.508 44.9616C128.856 44.8179 128.102 44.5928 127.832 44.4609C127.534 44.3157 127.308 44.0772 127.256 43.852C127.208 43.6491 127.231 43.3158 127.303 43.1113C127.377 42.9084 127.669 42.6239 127.954 42.4817C128.271 42.3232 128.814 42.2225 129.359 42.2195C129.848 42.2195 130.482 42.2906 130.767 42.381C131.051 42.4699 131.436 42.621 131.622 42.7158C131.893 42.855 132.002 42.8447 132.179 42.6669C132.299 42.5439 132.414 42.2491 132.435 42.0091C132.468 41.6121 132.404 41.5484 131.73 41.2892C131.285 41.1188 130.485 40.9825 129.73 40.9469C128.98 40.9129 128.201 40.9662 127.804 41.0788Z" fill="white"/>
<path d="M94.6952 39.1338C94.2566 39.5516 93.8952 39.9515 93.8907 40.0227C93.8848 40.0923 94.1322 40.1486 94.4374 40.1501C94.8729 40.1515 95.2077 39.9915 95.9929 39.4093C96.5425 39.0005 96.9588 38.6005 96.9188 38.519C96.8788 38.4375 96.541 38.3708 96.1692 38.3708C95.5574 38.3708 95.4166 38.4434 94.6952 39.1338Z" fill="white"/>
<path d="M265.359 19.6543C265.291 19.7092 265.245 23.5757 265.258 28.2482L265.283 36.7413H269.283C269.28 32.6658 269.331 31.2644 269.393 30.9992L269.505 30.5163L277.802 30.4452C277.874 27.4452 277.868 27.4082 277.542 27.3889C277.359 27.3786 275.443 27.3282 273.283 27.2778L269.357 27.186V22.7417C276.591 22.7224 278.773 22.7061 278.876 22.6928C279.013 22.6735 279.052 22.275 279.024 21.1491L278.987 19.6306C268.522 19.5714 265.427 19.598 265.359 19.6543Z" fill="white"/>
<path d="M247.58 19.7402C247.539 19.8424 247.524 23.6942 247.544 28.297L247.583 36.6671L261.583 36.7412V33.6302L251.731 33.5561V29.5562L260.101 29.4822C260.233 28.2763 260.251 27.6274 260.224 27.26L260.175 26.5933L251.657 26.5193L251.731 22.7416L261.286 22.6675L261.212 19.6306C249.088 19.5609 247.638 19.5935 247.58 19.7402Z" fill="white"/>
<path d="M211.433 19.6543C211.365 19.7092 211.319 22.6602 211.332 26.2112C211.346 29.7622 211.406 33.5843 211.469 34.7043L211.58 36.7428L215.506 36.7413V30.5192L224.024 30.4452C224.085 28.0793 224.037 27.5652 223.911 27.4245C223.76 27.2541 223.003 27.2275 219.654 27.2763L215.58 27.3341V22.7417L225.135 22.6676L225.061 19.6306C214.596 19.5714 211.501 19.598 211.433 19.6543Z" fill="white"/>
<path d="M149.067 19.6559C148.999 19.7092 148.956 21.7936 148.969 24.2854C148.984 26.7772 149.063 29.4156 149.146 30.1489C149.228 30.8822 149.405 31.8156 149.538 32.2229C149.671 32.6303 149.947 33.2303 150.151 33.5562C150.356 33.8822 150.839 34.4821 151.224 34.8895C151.673 35.3651 152.288 35.8006 152.94 36.1058C153.498 36.368 154.439 36.685 155.03 36.8095C155.621 36.9354 156.637 37.0376 157.289 37.0376C157.941 37.0376 158.991 36.931 159.622 36.8006C160.253 36.6702 161.17 36.3858 161.659 36.1665C162.148 35.9488 162.914 35.4303 163.363 35.0155C163.893 34.5236 164.373 33.8792 164.739 33.1681C165.141 32.3859 165.363 31.6956 165.517 30.7415C165.681 29.7252 165.724 28.2468 165.696 24.5195L165.659 19.6307L161.585 19.5566C161.576 27.9564 161.517 29.5786 161.362 30.4452C161.216 31.2556 161.019 31.8156 160.738 32.2141C160.489 32.5681 160.005 32.9651 159.511 33.2185C158.794 33.5888 158.538 33.6392 157.363 33.6392C156.19 33.6392 155.932 33.5888 155.215 33.22C154.705 32.9563 154.251 32.58 154.003 32.2155C153.781 31.8881 153.502 31.1563 153.374 30.5563C153.188 29.7015 153.141 28.466 153.141 24.5195V19.5566C150.079 19.5566 149.135 19.6011 149.067 19.6559Z" fill="white"/>
<path d="M101.145 28.1444L101.141 36.7412H105.141L105.066 19.6306L101.15 19.5476L101.145 28.1444Z" fill="white"/>
<path d="M80.0274 19.656C79.9593 19.7093 79.9148 23.5759 79.9281 28.2483L79.9533 36.7414L84.0273 36.6674C84.0851 28.6661 84.1577 26.5358 84.2347 26.5565C84.3088 26.5773 85.1947 27.5269 86.205 28.6676C87.2154 29.8083 88.205 30.9386 88.405 31.1801C88.605 31.4201 89.0717 31.9534 89.442 32.3653C89.8139 32.7756 90.8301 33.9282 91.7012 34.9267L93.2864 36.7414H96.6937L96.6196 19.6308H92.6197L92.4716 29.9387C90.7309 28.035 89.9264 27.115 89.5605 26.6676C89.1946 26.2203 88.7013 25.6499 88.4613 25.4025C88.2228 25.1536 87.2272 24.0218 86.2495 22.887C85.2717 21.7522 84.2051 20.5404 83.8792 20.1952L83.2866 19.5686C80.857 19.5597 80.0955 19.6012 80.0274 19.656Z" fill="white"/>
<path d="M58.922 24.9593C58.919 28.46 58.9768 30.6199 59.0835 31.0747C59.1753 31.4613 59.4242 32.211 59.6346 32.7413C59.9323 33.4835 60.2583 33.9428 61.0612 34.7442C61.6345 35.3161 62.4034 35.9308 62.7693 36.1086C63.1367 36.2879 63.9693 36.5708 64.6211 36.7368C65.3589 36.9264 66.2818 37.0405 67.0655 37.0419C67.7588 37.0419 68.8581 36.9323 69.5099 36.8005C70.1617 36.6671 70.9958 36.4197 71.3617 36.2508C71.7291 36.0805 72.3617 35.7012 72.7691 35.4049C73.1765 35.1101 73.7468 34.5398 74.0357 34.1383C74.3261 33.7368 74.655 33.208 74.7676 32.9635C74.8802 32.7191 75.0683 32.2184 75.1853 31.8524C75.3498 31.3339 75.4105 29.9058 75.4535 25.4452L75.5098 19.7046C74.9928 19.5802 74.0772 19.5639 73.1395 19.5876L71.4358 19.6306C71.2936 30.5547 71.2639 31.0821 71.0091 31.5562C70.8551 31.8406 70.6047 32.2584 70.4536 32.4821C70.301 32.7058 69.8106 33.0554 69.3618 33.2598C68.6862 33.5665 68.3203 33.6302 67.2137 33.6302C66.0996 33.6302 65.7648 33.5709 65.1767 33.2746C64.79 33.0791 64.3263 32.762 64.1485 32.5709C63.9693 32.3798 63.67 31.8895 63.4819 31.4821C63.1486 30.7606 63.1382 30.5962 63.0656 25.186L62.9915 19.6306L58.9264 19.5476L58.922 24.9593Z" fill="white"/>
<path d="M116.325 19.4825C115.754 19.5892 115.021 19.7744 114.695 19.8929C114.369 20.0114 113.735 20.2943 113.288 20.521C112.84 20.7477 112.174 21.1595 111.806 21.4365C111.439 21.7121 110.848 22.2869 110.492 22.7106C110.137 23.1357 109.66 23.8498 109.433 24.2972C109.206 24.7446 108.916 25.512 108.787 26.0009C108.658 26.4897 108.55 27.4897 108.547 28.223C108.543 29.2689 108.624 29.8111 108.928 30.7415C109.141 31.3933 109.608 32.377 109.968 32.9266C110.337 33.491 111.024 34.2584 111.547 34.6865C112.057 35.1058 112.806 35.6139 113.214 35.8184C113.621 36.0213 114.488 36.3576 115.139 36.5635C116.165 36.888 116.606 36.9398 118.399 36.9472C120.116 36.9546 120.714 36.8954 121.88 36.602C122.655 36.4065 123.754 36.0183 124.324 35.7398C124.895 35.4598 125.48 35.1221 125.625 34.9873C125.865 34.765 125.889 34.414 125.884 31.297L125.88 27.8527L122.102 27.9267L121.954 33.1103C120.559 33.4999 119.605 33.611 118.843 33.6169C118.025 33.6229 117.166 33.5325 116.621 33.3814C116.132 33.2466 115.465 32.9532 115.139 32.731C114.814 32.5073 114.34 32.1029 114.086 31.8303C113.833 31.5577 113.433 30.934 113.197 30.4452C112.818 29.657 112.769 29.3963 112.769 28.1489C112.769 26.9312 112.823 26.6319 113.162 25.9268C113.377 25.4794 113.782 24.8453 114.061 24.5194C114.341 24.1935 114.864 23.7476 115.224 23.5298C115.585 23.312 116.313 23.0202 116.843 22.8824C117.544 22.7002 118.19 22.6498 119.213 22.6972C120.335 22.7506 120.802 22.8454 121.51 23.1669C121.999 23.3891 122.649 23.7668 122.954 24.0083C123.433 24.3846 123.545 24.4187 123.769 24.2513C123.911 24.1446 124.482 23.6617 125.034 23.1772C125.588 22.6928 126.04 22.2306 126.039 22.1491C126.037 22.0676 125.652 21.7091 125.181 21.3536C124.71 20.9965 123.892 20.5032 123.362 20.2573C122.831 20.0114 121.799 19.6884 121.065 19.5373C120.332 19.3877 119.199 19.2692 118.547 19.2751C117.895 19.2825 116.895 19.3744 116.325 19.4825Z" fill="white"/>
<path d="M223.58 8.10072C223.512 8.15406 223.468 10.2207 223.481 12.6932L223.506 17.1864H224.395V8.00146C223.859 8.00146 223.648 8.04591 223.58 8.10072Z" fill="white"/>
<path d="M193.617 8.22961C193.558 8.35405 193.576 8.51849 193.657 8.59404C193.738 8.66811 194.538 8.74959 195.435 8.77329L197.064 8.81626L197.212 17.2605H198.101L198.25 8.81626L201.583 8.74218V8.00146C194.264 8.00146 193.709 8.03258 193.617 8.22961Z" fill="white"/>
<path d="M190.962 12.622L190.991 17.2604H191.88V8.07551L190.934 7.98218L190.962 12.622Z" fill="white"/>
<path d="M183.248 8.19856C182.984 8.29337 182.534 8.55559 182.248 8.77928C181.938 9.02224 181.663 9.41038 181.564 9.74222C181.473 10.0474 181.439 10.5807 181.49 10.9274C181.562 11.4207 181.701 11.6518 182.137 11.9999C182.442 12.2429 182.993 12.5362 183.359 12.6518C183.725 12.7673 184.26 12.9051 184.544 12.9584C184.829 13.0132 185.23 13.114 185.433 13.1836C185.638 13.2532 185.971 13.3436 186.174 13.3851C186.378 13.4266 186.761 13.6651 187.026 13.9154C187.39 14.2606 187.507 14.4976 187.507 14.8902C187.507 15.2739 187.381 15.5391 187.026 15.9095C186.623 16.3287 186.398 16.428 185.655 16.5198C185.167 16.5791 184.401 16.5805 183.952 16.5213C183.503 16.462 182.804 16.2502 182.396 16.0487C181.989 15.8472 181.573 15.7213 181.47 15.7687C181.368 15.8146 181.285 15.9702 181.285 16.1124C181.285 16.2783 181.54 16.4887 181.989 16.6946C182.376 16.8724 183.026 17.099 183.433 17.1983C183.869 17.305 184.632 17.3479 185.285 17.302C185.97 17.2546 186.623 17.1094 186.989 16.9242C187.315 16.7598 187.689 16.502 187.823 16.3509C187.956 16.1998 188.18 15.8428 188.322 15.5569C188.472 15.2547 188.55 14.8532 188.509 14.5939C188.469 14.3495 188.312 13.9569 188.158 13.7214C188.004 13.4873 187.577 13.1466 187.211 12.9658C186.845 12.7851 185.944 12.4858 185.211 12.3021C184.478 12.1184 183.618 11.8592 183.301 11.7259C182.97 11.5851 182.639 11.3096 182.524 11.0755C182.413 10.8518 182.319 10.5185 182.318 10.3348C182.315 10.1511 182.448 9.81777 182.614 9.59408C182.778 9.37038 183.115 9.08742 183.359 8.96446C183.638 8.82521 184.232 8.74077 184.952 8.73929C185.727 8.73781 186.377 8.8341 186.952 9.03558C187.753 9.31705 187.808 9.32001 187.878 9.07557C187.919 8.93335 187.869 8.72891 187.767 8.62077C187.664 8.51262 187.248 8.32893 186.841 8.21189C186.433 8.09486 185.567 8.00449 184.915 8.0119C184.263 8.01783 183.513 8.10226 183.248 8.19856Z" fill="white"/>
<path d="M162.36 12.6278L162.397 17.2603H169.211V16.5196L163.36 16.4455V12.89C167.409 12.89 168.426 12.8323 168.471 12.7419C168.512 12.6604 168.462 12.49 168.36 12.3656C168.206 12.1745 167.764 12.1375 165.767 12.1434L163.36 12.1493V8.74201C168.952 8.66942 169.063 8.65608 169.063 8.37165C169.063 8.08573 168.951 8.07388 165.693 8.03536L162.324 7.99536L162.36 12.6278Z" fill="white"/>
<path d="M151.322 8.10363C151.28 8.1703 151.612 8.99101 152.06 9.92728C152.507 10.8636 153.076 12.065 153.325 12.5939C153.575 13.1228 154.101 14.2575 154.495 15.1123C154.889 15.9671 155.329 16.8278 155.473 17.0234C155.671 17.296 155.821 17.3582 156.104 17.29C156.32 17.2367 156.578 16.9967 156.725 16.7108C156.861 16.4427 157.317 15.4901 157.738 14.5938C158.159 13.6975 158.839 12.2635 159.249 11.4087C159.659 10.5539 160.153 9.50359 160.345 9.07546C160.539 8.64732 160.696 8.23104 160.696 8.14956C160.696 8.06808 160.52 8.01771 160.304 8.03845C160.088 8.05919 159.855 8.17622 159.785 8.2977C159.717 8.41918 159.234 9.41915 158.716 10.5199C158.196 11.6206 157.396 13.3035 156.937 14.2605C156.479 15.2175 156.037 15.9671 155.956 15.9271C155.874 15.8871 155.474 15.1523 155.067 14.2975C154.66 13.4427 154.326 12.7079 154.326 12.6679C154.326 12.6279 153.957 11.8102 153.507 10.8532C153.057 9.89617 152.571 8.87991 152.427 8.59399C152.245 8.23252 152.049 8.06215 151.781 8.02956C151.569 8.00438 151.363 8.03845 151.322 8.10363Z" fill="white"/>
<path d="M148.4 12.5939V17.1864H149.289V8.00146H148.4V12.5939Z" fill="white"/>
<path d="M136.99 12.5937V17.1862H137.879C137.879 11.4086 137.935 10.0471 138.027 10.0012C138.109 9.96121 138.59 10.4101 139.095 11.0012C139.602 11.5923 140.135 12.1923 140.281 12.3345C140.427 12.4767 140.547 12.6441 140.549 12.7048C140.549 12.7656 140.866 13.1626 141.252 13.5848C141.638 14.0085 142.486 14.9937 143.138 15.7729C144.113 16.9403 144.396 17.1921 144.731 17.1892L145.138 17.1862V8.00126H144.249C144.249 13.7418 144.199 15.4114 144.138 15.4159C144.077 15.4188 143.793 15.1625 143.509 14.8455C143.224 14.5285 142.823 14.0678 142.62 13.8218C142.415 13.5744 141.215 12.1626 139.953 10.6841C138.224 8.65902 137.574 7.99534 137.324 7.9983L136.99 8.00126V12.5937Z" fill="white"/>
<path d="M125.515 8.09331C125.444 8.15109 125.396 9.30513 125.411 10.6562C125.424 12.0073 125.494 13.4798 125.565 13.9272C125.636 14.3746 125.817 15.0087 125.969 15.3346C126.121 15.6605 126.412 16.0783 126.617 16.2649C126.823 16.4501 127.257 16.7494 127.583 16.9301C128.079 17.2056 128.405 17.259 129.583 17.2605C130.697 17.2605 131.112 17.1982 131.575 16.9642C131.898 16.8012 132.356 16.4679 132.594 16.2235C132.833 15.979 133.137 15.579 133.269 15.3346C133.469 14.9628 133.51 14.3243 133.52 11.4458L133.531 8.00146H132.694C132.694 13.8235 132.652 14.4546 132.454 14.8531C132.322 15.1183 132.073 15.4916 131.898 15.6827C131.725 15.8724 131.399 16.1227 131.175 16.2383C130.926 16.3657 130.309 16.4457 129.583 16.4457C128.857 16.4457 128.239 16.3657 127.99 16.2383C127.766 16.1227 127.438 15.8724 127.26 15.6827C127.082 15.4916 126.852 15.1346 126.75 14.8902C126.63 14.6057 126.534 13.3035 126.481 11.2606L126.398 8.07554C125.814 8.00739 125.586 8.03554 125.515 8.09331Z" fill="white"/>
<path d="M89.9504 8.22368C89.9104 8.34516 89.9134 8.51256 89.9534 8.59404C89.9964 8.67996 90.7193 8.74218 91.6571 8.74218C92.9741 8.74218 93.3015 8.78515 93.3607 8.9644C93.4007 9.08588 93.4348 10.9866 93.4348 13.1865V17.1864H94.3237L94.3977 8.81626L97.731 8.74218V8.00146C90.5786 8.00146 90.0097 8.03406 89.9504 8.22368Z" fill="white"/>
<path d="M79.8809 8.10054C79.8128 8.15387 79.7683 10.2205 79.7817 12.693C79.8009 16.1196 79.8513 17.2084 79.992 17.2781C80.0942 17.3284 80.3268 17.3284 80.5105 17.2781L80.8439 17.1862C80.8439 11.2353 80.8972 9.92715 80.992 9.92715C81.0735 9.92715 81.235 10.0768 81.3505 10.2605C81.4675 10.4442 81.8379 10.8931 82.1742 11.2604C82.5105 11.6278 82.9994 12.1893 83.2601 12.5093C83.5194 12.8278 83.9682 13.3611 84.2556 13.6945C84.543 14.0263 85.106 14.6974 85.5089 15.1863C85.9104 15.6751 86.5089 16.361 86.8378 16.7092C87.223 17.1166 87.543 17.3284 87.7326 17.3018C88.0215 17.2618 88.0289 17.1477 88.0289 12.6678V8.07535H87.14C87.0822 13.7582 87.0097 15.3922 86.94 15.3714C86.8704 15.3507 85.6201 13.93 84.1623 12.213C82.7031 10.4975 81.3105 8.8457 81.0661 8.54349C80.8068 8.22202 80.4928 7.99536 80.3135 7.99832C80.1431 7.9998 79.9491 8.04573 79.8809 8.10054Z" fill="white"/>
<path d="M70.3262 12.5939V17.1864C71.7617 17.3138 73.3113 17.3316 74.6964 17.3064L77.2149 17.2605V16.5197L71.215 16.4457L71.2891 12.9643C76.3972 12.8902 76.4001 12.8902 76.3631 12.5569C76.326 12.2265 76.2979 12.2236 73.7705 12.1865L71.215 12.1495L71.2891 8.81626L76.9927 8.74218V8.00146H70.3262V12.5939Z" fill="white"/>
<path d="M62.5476 8.20148C62.2217 8.30666 61.6884 8.56147 61.3625 8.7659C61.0366 8.97034 60.5373 9.40737 60.2514 9.73625C59.9655 10.0666 59.6158 10.6607 59.4736 11.0577C59.3299 11.4547 59.2129 12.1791 59.2129 12.668C59.2129 13.1569 59.3299 13.8858 59.4736 14.2887C59.6218 14.7065 60.0188 15.3213 60.3995 15.7227C60.7817 16.1227 61.4469 16.6012 61.9551 16.8383C62.6395 17.1568 63.1165 17.2649 64.0291 17.3049C64.8543 17.342 65.4394 17.2827 65.955 17.1138C66.3624 16.979 66.9461 16.7064 67.2512 16.5094C67.5564 16.3109 67.8068 16.0827 67.8068 16.0013C67.8068 15.9198 67.6735 15.7864 67.5105 15.705C67.2942 15.5968 67.1446 15.6146 66.9549 15.7702C66.8127 15.8872 66.4453 16.0872 66.1402 16.2146C65.7935 16.3583 65.1254 16.4472 64.3624 16.4486C63.4587 16.4516 62.9565 16.3746 62.4365 16.1524C62.0499 15.9879 61.5165 15.6353 61.2514 15.3702C60.9862 15.1035 60.6203 14.5702 60.4366 14.185C60.2099 13.708 60.1032 13.2102 60.1047 12.631C60.1062 12.0532 60.2173 11.5406 60.4514 11.0384C60.641 10.631 61.0395 10.0814 61.3388 9.81624C61.6365 9.55107 62.198 9.19997 62.5847 9.03553C63.0824 8.8222 63.6143 8.7348 64.3994 8.7348C65.3668 8.7348 65.6305 8.79702 66.4379 9.22071C67.189 9.61181 67.4009 9.66958 67.549 9.51551C67.6868 9.37478 67.6912 9.26219 67.5683 9.07108C67.4779 8.93034 67.0794 8.64887 66.6838 8.44591C66.0853 8.13777 65.7268 8.06963 64.552 8.04148C63.7017 8.02074 62.9047 8.08444 62.5476 8.20148Z" fill="white"/>
<path d="M206.665 6.2652C206.241 6.60889 205.891 6.94073 205.887 7.00147C205.882 7.06221 206.029 7.10962 206.213 7.10665C206.396 7.10369 206.847 6.87851 207.213 6.60592C207.579 6.33334 207.953 6.00298 208.044 5.87113C208.183 5.66966 208.148 5.63114 207.822 5.63558C207.592 5.63707 207.124 5.89187 206.665 6.2652Z" fill="white"/>
<path d="M32.7728 5.7124C32.121 6.1598 31.2321 6.87385 30.7981 7.30051C30.364 7.72716 29.727 8.4427 29.3848 8.89009C29.0426 9.33749 28.4485 10.2219 28.0633 10.853C27.6796 11.4841 27.3656 12.0678 27.3656 12.1493C27.3656 12.2307 27.2707 12.5137 27.1552 12.7789C27.0396 13.0441 26.8396 13.5107 26.7108 13.8159C26.5819 14.1211 26.4767 14.4381 26.4767 14.5196C26.4767 14.601 26.4174 14.7847 26.3448 14.927C26.2722 15.0692 26.1093 15.6855 25.9819 16.2973C25.853 16.9076 25.6678 17.841 25.5686 18.3713C25.4693 18.9002 25.3834 20.035 25.3774 20.8898L25.3656 22.4453C29.3848 22.589 30.9847 22.703 31.5136 22.7904C32.0425 22.8778 32.764 23.103 33.1165 23.2897C33.4676 23.4778 33.8632 23.7963 33.995 24.0008C34.1254 24.2037 34.318 24.7711 34.4217 25.26C34.5461 25.8496 34.5639 26.2985 34.475 26.5933C34.3995 26.8377 34.3032 27.2037 34.2587 27.4081C34.2158 27.6111 33.9476 28.0955 33.6617 28.4821C33.3773 28.8688 32.9269 29.2969 32.6617 29.4332C32.3966 29.5695 31.8143 29.774 31.3655 29.888C30.8751 30.0125 29.2455 30.1354 27.2678 30.1962L23.9849 30.2969C23.853 33.8553 23.6842 35.6893 23.5256 36.6671C23.3671 37.6448 23.1701 38.7115 23.0886 39.0374C23.0056 39.3633 22.8634 39.9633 22.7731 40.3707C22.6827 40.7781 22.5523 41.2447 22.4857 41.4077C22.419 41.5707 22.2471 42.0032 22.1034 42.3706C21.9597 42.738 21.5509 43.6373 21.1938 44.3706C20.8368 45.1039 20.462 45.8372 20.3627 45.9987C20.262 46.1616 19.7835 46.8624 19.2976 47.5542C18.8131 48.2475 17.8458 49.3823 17.1495 50.0741C16.4532 50.7674 15.3169 51.7407 14.6251 52.2355C13.9332 52.7318 13.2666 53.1837 13.1436 53.2414C13.0207 53.2977 12.5303 53.5585 12.0518 53.8207C11.5733 54.0829 11.1792 54.3629 11.1777 54.4444C11.1748 54.5258 11.6 54.7095 12.1214 54.8532C12.6429 54.9969 13.4029 55.1821 13.8103 55.2621C14.2177 55.3436 15.0517 55.4784 15.6621 55.5629C16.2739 55.6473 17.0073 55.7791 17.2917 55.8577C17.5761 55.9347 18.7435 55.9984 19.8842 55.9999C21.1079 55.9999 22.4738 55.9065 23.2175 55.7732C23.9108 55.6473 25.01 55.4429 25.6619 55.3184C26.3137 55.194 27.047 55.0295 27.2915 54.954C27.5359 54.8784 28.0367 54.7199 28.4026 54.6014C28.7685 54.4829 29.5359 54.2118 30.1062 53.9999C30.6766 53.7881 31.7432 53.3096 32.4766 52.9348C33.2099 52.56 34.2439 51.9837 34.7728 51.6533C35.3017 51.323 36.2691 50.6504 36.9209 50.1586C37.5727 49.6667 38.632 48.7631 39.2764 48.1512C39.9194 47.5379 40.9801 46.4046 41.6334 45.6298C42.2852 44.855 43.1237 43.7558 43.4941 43.1854C43.8645 42.6151 44.3207 41.8818 44.5089 41.5558C44.6956 41.2299 45.14 40.3633 45.4955 39.63C45.8511 38.8967 46.2585 37.9974 46.4007 37.63C46.5429 37.2626 46.7133 36.8301 46.78 36.6671C46.8451 36.5041 46.9977 36.0375 47.1177 35.6301C47.2362 35.2227 47.4066 34.5901 47.4955 34.2227C47.5844 33.8553 47.7666 33.0228 47.9014 32.3709C48.0866 31.4732 48.1459 30.3769 48.1459 27.8525C48.1444 24.9726 48.0999 24.3178 47.8199 23.0378C47.6407 22.2231 47.4392 21.3223 47.3696 21.0379C47.3014 20.752 47.0718 20.0527 46.86 19.4824C46.6481 18.912 46.4155 18.3121 46.3429 18.1491C46.2703 17.9861 45.9252 17.2854 45.5755 16.5936C45.2259 15.9003 44.8674 15.201 44.78 15.0381C44.6911 14.8751 44.4867 14.5418 44.3267 14.2973C44.1652 14.0529 43.6363 13.3196 43.1519 12.6678C42.6675 12.0159 41.9015 11.09 41.4482 10.6086C40.9949 10.1286 40.3964 9.5286 40.1179 9.27527C39.8394 9.02342 39.4734 8.65899 39.3031 8.4664C39.1342 8.27382 38.512 7.7242 37.9209 7.24422C37.3298 6.76423 36.6972 6.28869 36.5135 6.18647C36.3298 6.08425 36.1476 5.96129 36.1061 5.91388C36.0646 5.86648 35.7313 5.61463 35.3654 5.3539C34.9995 5.09465 34.5313 4.88576 34.3284 4.89021C34.1239 4.89613 33.4247 5.26649 32.7728 5.7124Z" fill="white"/>
<path d="M26.4628 0.942213C25.8583 1.45924 24.7946 2.4755 24.0984 3.20141C23.4021 3.92583 22.408 5.05321 21.888 5.70504C21.368 6.35687 20.5295 7.52277 20.0244 8.29756C19.5207 9.07235 18.9814 9.94788 18.8274 10.2457C18.6748 10.5434 18.4407 11.0101 18.3089 11.2827C18.1785 11.5552 17.8659 12.2456 17.6155 12.816C17.3637 13.3863 16.9222 14.57 16.6318 15.4455C16.3415 16.321 16.1045 17.204 16.1045 17.4084C16.1045 17.6114 16.0096 18.0291 15.8941 18.3343C15.7785 18.6395 15.6052 19.6558 15.5089 20.5935C15.4126 21.5298 15.2571 22.3831 15.1637 22.4883C15.0452 22.6231 14.543 22.6794 13.5119 22.6764C12.6971 22.6735 11.9549 22.7209 11.8616 22.7816C11.7682 22.8409 11.6216 23.5905 11.5357 24.4453C11.4483 25.3 11.3594 26.6008 11.3357 27.3341C11.3134 28.0674 11.3431 28.7503 11.4023 28.8525C11.472 28.9696 11.8557 29.0392 12.4379 29.0407C12.9475 29.0422 13.6156 29.1251 13.9223 29.2259L14.4823 29.4081C14.4763 30.728 14.4156 31.3947 14.3415 31.7413C14.2689 32.088 14.0971 32.9043 13.9593 33.5561C13.8215 34.2079 13.506 35.3738 13.2571 36.1486C13.0097 36.9234 12.6364 37.9234 12.4305 38.3708C12.2231 38.8182 11.7845 39.6522 11.4571 40.2226C11.1297 40.7929 10.4246 41.8255 9.89125 42.5159C9.35645 43.2077 8.42017 44.2521 7.80833 44.8358C7.19797 45.421 6.36392 46.1528 5.95652 46.4609C5.54912 46.7691 4.51655 47.4624 3.66027 48.0016C2.80547 48.5409 1.73883 49.1542 1.28995 49.366C0.842553 49.5779 0.358119 49.7912 0.2159 49.8386C0.0736805 49.8875 -0.0211322 50.009 0.0040524 50.1112C0.0307185 50.2134 0.331453 50.446 0.670705 50.6297L1.28995 50.963C2.83955 50.0905 3.39065 49.7986 3.51213 49.7542C3.63509 49.7083 4.23507 49.3527 4.84543 48.9616C5.45727 48.572 6.35651 47.9483 6.84539 47.5735C7.33427 47.2002 8.32536 46.3261 9.04831 45.6328C9.77125 44.938 10.672 43.9706 11.0483 43.4818C11.426 42.9929 11.9342 42.2907 12.1786 41.9203C12.423 41.55 12.703 41.1174 12.8008 40.9574C12.9001 40.7974 13.1875 40.2344 13.4423 39.7041C13.6956 39.1737 13.9875 38.5737 14.0897 38.3708C14.1919 38.1664 14.3667 37.6997 14.4778 37.3338C14.5889 36.9664 14.7667 36.5338 14.8748 36.3708C14.9815 36.2079 15.0689 35.9575 15.0689 35.8153C15.0674 35.6731 15.1267 35.439 15.1993 35.2968C15.2734 35.1546 15.4097 34.6702 15.503 34.2228C15.5963 33.7739 15.7415 33.0746 15.823 32.6672C15.9059 32.2599 16.0526 31.3784 16.1504 30.7073C16.2837 29.7829 16.3978 29.4377 16.623 29.2851C16.7859 29.1725 17.3192 29.0362 17.8081 28.9814C18.297 28.9251 18.9311 28.8066 19.2155 28.7162C19.5014 28.6274 20.0955 28.3785 20.537 28.1652C20.9784 27.9533 21.5636 27.5118 21.8362 27.1859C22.1103 26.86 22.3725 26.3934 22.4184 26.1489C22.4658 25.9045 22.4643 25.5045 22.4139 25.26C22.3651 25.0156 22.1073 24.5564 21.8436 24.2393C21.5799 23.9208 21.0969 23.5238 20.771 23.3564C20.4451 23.1875 19.9459 22.9668 19.6599 22.8646C19.3755 22.7638 18.7177 22.6275 18.1992 22.5623C17.6822 22.4986 17.1978 22.3624 17.1252 22.2601C17.0526 22.1579 17.0348 21.9579 17.0867 21.8157C17.137 21.6735 17.2748 21.0557 17.3904 20.4454C17.5074 19.8335 17.6392 19.0676 17.6852 18.7417C17.7296 18.4158 17.8185 18.0825 17.8807 18.001C17.9429 17.9195 18.0348 17.5521 18.0852 17.1862C18.137 16.8188 18.3444 16.1033 18.5488 15.5937C18.7518 15.084 18.9207 14.5507 18.9207 14.4085C18.9222 14.2663 19.0496 13.8826 19.2051 13.5567C19.3592 13.2308 19.6273 12.6308 19.8007 12.2234C19.974 11.816 20.1888 11.3493 20.2807 11.1864C20.3725 11.0234 20.6451 10.5227 20.8866 10.0753C21.1295 9.62641 21.568 8.89902 21.8643 8.45755C22.1591 8.01609 22.5339 7.47536 22.6969 7.25463C22.8599 7.03389 23.2658 6.49613 23.5991 6.05762C23.9324 5.61912 24.8332 4.66803 25.5991 3.94361C26.3665 3.21918 27.5783 2.18514 28.2953 1.64738C29.0108 1.10813 29.5442 0.626666 29.4805 0.576297C29.4153 0.525928 29.0301 0.376301 28.6227 0.24149C28.2153 0.108161 27.8094 -0.0014666 27.722 1.48403e-05C27.6331 1.48403e-05 27.0657 0.42519 26.4628 0.942213Z" fill="white"/>
<path d="M101.844 8.0022C103.306 8.00368 104.299 8.07671 104.844 8.22485C105.291 8.34482 105.892 8.632 106.177 8.86157C106.461 9.09111 106.822 9.5416 106.979 9.86157C107.142 10.1963 107.266 10.7607 107.266 11.1858C107.269 11.719 107.157 12.1236 106.87 12.6301C106.602 13.1071 106.258 13.454 105.807 13.7043C105.44 13.9084 105.141 14.1246 105.14 14.1858C105.14 14.2465 105.607 14.9133 106.177 15.6672C106.745 16.4189 107.211 17.0679 107.214 17.1116C107.214 17.1516 107.014 17.1858 106.77 17.1858C106.455 17.1858 106.239 17.0674 106.03 16.7786C105.869 16.5549 105.684 16.3044 105.62 16.2229C105.556 16.1413 105.205 15.6952 104.177 14.3918L102.548 14.2864C101.652 14.2286 100.835 14.2248 100.732 14.2766C100.604 14.3423 100.548 14.8039 100.548 17.1858H99.6582V8.00122L101.844 8.0022ZM102.535 8.74438C101.55 8.74292 100.689 8.78626 100.621 8.84106C100.553 8.89712 100.509 9.96263 100.522 11.2112L100.548 13.4827C104.071 13.4767 104.594 13.4214 105.065 13.2112C105.437 13.0453 105.792 12.7284 106.016 12.3625C106.31 11.8812 106.362 11.6336 106.312 10.9407C106.266 10.3066 106.161 10.0037 105.881 9.69849C105.676 9.47632 105.244 9.17285 104.918 9.02173C104.447 8.80396 103.957 8.74735 102.535 8.74438Z" fill="white"/>
<path d="M114.105 8.01489C114.854 8.00897 115.583 8.10049 116.082 8.26196C116.518 8.40422 117.218 8.79051 117.638 9.12231C118.156 9.53113 118.543 10.0083 118.842 10.6038C119.116 11.1503 119.305 11.789 119.344 12.2971C119.384 12.8363 119.31 13.4112 119.126 13.9963C118.925 14.6318 118.637 15.1058 118.105 15.676C117.674 16.1382 117.024 16.6339 116.55 16.8606C115.843 17.1967 115.538 17.2482 114.251 17.2542C113.098 17.2586 112.618 17.1966 112.103 16.9729C111.738 16.8144 111.114 16.4478 110.719 16.1575C110.174 15.7577 109.878 15.3801 109.494 14.594C109.093 13.7733 108.987 13.3784 108.99 12.7043C108.993 12.1889 109.124 11.5166 109.322 11.0012C109.537 10.4442 109.909 9.88857 110.396 9.39673C110.939 8.85025 111.387 8.55789 112.031 8.33423C112.63 8.12536 113.309 8.02231 114.105 8.01489ZM114.105 8.7522C113.507 8.75516 112.818 8.85954 112.476 8.99731C112.15 9.12772 111.688 9.37536 111.449 9.54419C111.211 9.71467 110.794 10.1867 110.523 10.594C110.064 11.2828 110.03 11.4193 110.031 12.5569C110.031 13.6085 110.088 13.8844 110.438 14.5315C110.662 14.9448 111.047 15.4366 111.291 15.6233C111.535 15.81 112.002 16.0744 112.328 16.2092C112.727 16.3735 113.334 16.45 114.18 16.4456C115.064 16.4411 115.615 16.3602 116.031 16.1721C116.357 16.0255 116.879 15.6752 117.191 15.3967C117.502 15.1183 117.886 14.624 118.04 14.2981C118.234 13.8937 118.324 13.3763 118.327 12.6682C118.33 11.8625 118.251 11.4669 117.968 10.8909C117.768 10.4835 117.333 9.93339 117.003 9.66821C116.673 9.40315 116.119 9.08761 115.772 8.96606C115.426 8.84607 114.676 8.74923 114.105 8.7522Z" fill="white"/>
<path d="M174.135 8.0022C175.597 8.00368 176.59 8.07671 177.135 8.22485C177.584 8.34485 178.183 8.63388 178.468 8.86646C178.752 9.09756 179.101 9.51373 179.238 9.79224C179.38 10.0782 179.493 10.6518 179.496 11.1125C179.499 11.6709 179.397 12.1316 179.17 12.5774C178.957 12.9966 178.586 13.3925 178.13 13.6887C177.742 13.9406 177.428 14.1631 177.427 14.1858C177.43 14.2065 177.578 14.4393 177.757 14.7043C177.936 14.9695 178.123 15.22 178.172 15.26C178.221 15.3 178.422 15.5669 178.619 15.8528C178.816 16.1385 179.097 16.5042 179.244 16.6672C179.39 16.8298 179.509 17.0133 179.508 17.0745C179.506 17.1352 179.305 17.1858 179.061 17.1858C178.689 17.1858 178.502 17.0347 177.917 16.26C177.533 15.7504 177.124 15.233 177.009 15.1116C176.895 14.99 176.742 14.7722 176.671 14.6301C176.558 14.4038 176.305 14.3713 172.839 14.3713V17.1858H171.949V8.00122L174.135 8.0022ZM174.8 8.74731C173.437 8.74287 172.965 8.78963 172.918 8.93481C172.884 9.04281 172.869 10.0919 172.886 11.2678L172.914 13.4084C176.487 13.4781 176.852 13.4419 177.358 13.1975C177.684 13.0404 178.081 12.7239 178.241 12.4944C178.453 12.1908 178.534 11.8218 178.537 11.1614C178.542 10.4666 178.471 10.1444 178.238 9.82739C178.071 9.59634 177.637 9.26203 177.275 9.0813C176.707 8.79835 176.37 8.75324 174.8 8.74731Z" fill="white"/>
<path d="M114.479 41.2092C114.61 41.0967 115.013 41.042 116.325 41.1116L117.247 42.9641C117.754 43.9834 118.705 45.9329 119.358 47.2971C120.013 48.6605 120.547 49.8759 120.548 50.0002C120.548 50.1691 120.361 50.2238 118.992 50.2327L118.029 48.1487L112.918 48.1428L111.881 50.2288L111.104 50.2258C110.675 50.2243 110.326 50.1559 110.326 50.0745C110.326 49.9926 110.567 49.4093 110.863 48.7786C111.158 48.1475 112.06 46.2641 112.866 44.593C113.672 42.9235 114.318 41.5193 114.299 41.4749C114.281 41.4304 114.362 41.3099 114.479 41.2092ZM115.466 42.8157C115.441 42.8157 115.328 42.8956 115.214 42.9934C115.1 43.0911 115.02 43.2241 115.036 43.2893C115.052 43.3545 114.84 43.8906 114.564 44.4817C114.289 45.0728 113.956 45.8064 113.824 46.1116C113.692 46.4166 113.635 46.7021 113.695 46.7454C113.756 46.7883 114.59 46.8211 115.547 46.8196C116.606 46.8166 117.288 46.7575 117.288 46.6672C117.288 46.5858 116.887 45.685 116.398 44.6672C115.911 43.6515 115.494 42.8212 115.466 42.8157Z" fill="white"/>
<path d="M85.8389 41.0393C87.5855 41.0408 88.5624 41.1069 89.1357 41.2639C89.595 41.3899 90.2261 41.7129 90.5801 42.0032C91.0067 42.3528 91.2896 42.7459 91.457 43.2229C91.6318 43.7236 91.6746 44.1399 91.6035 44.6672C91.5502 45.0744 91.3386 45.6578 91.1357 45.9631C90.9313 46.2683 90.4983 46.6691 90.1738 46.8528C89.848 47.0364 89.5796 47.22 89.5781 47.26C89.577 47.3025 89.9858 47.9028 90.4854 48.593C90.9856 49.2841 91.4705 49.9371 91.5615 50.0432C91.6949 50.1988 91.5471 50.2348 89.876 50.2229L87.876 47.5393L85.21 47.6301L85.1357 50.2229H83.3574V41.0374L85.8389 41.0393ZM86.9639 42.3918C85.6365 42.3504 85.2923 42.3817 85.2256 42.5491C85.1812 42.6661 85.1575 43.5235 85.1768 44.4543L85.21 46.1487C87.987 46.2257 88.2553 46.1885 88.8389 45.8938C89.3589 45.6301 89.5519 45.4253 89.7178 44.9631C89.891 44.4835 89.897 44.2508 89.7549 43.7415C89.6364 43.3134 89.4259 43.0052 89.0986 42.7786C88.6853 42.4927 88.3844 42.4378 86.9639 42.3918Z" fill="white"/>
<path d="M75.7129 41.2158C75.7959 41.087 76.107 41.0382 77.5098 41.1123L78.2168 42.5195C78.605 43.293 79.5881 45.3108 80.4014 47.001C81.2122 48.6861 81.8758 50.0987 81.8799 50.1484C81.8799 50.1884 81.4964 50.2245 80.1768 50.2334L79.2129 48.1484L74.1025 48.1426L73.0654 50.2285L72.2871 50.2256C71.8599 50.2241 71.511 50.1565 71.5098 50.0752C71.5098 49.9937 71.7073 49.5106 71.9473 49.001C72.1872 48.4914 72.7128 47.3743 73.1172 46.5195C73.5216 45.6634 74.2447 44.1643 74.7217 43.1865C75.2002 42.2088 75.6462 41.3225 75.7129 41.2158ZM76.8271 42.9854C76.6553 42.8654 76.5392 42.8687 76.3926 42.9961C76.2831 43.0923 76.2065 43.2239 76.2227 43.2891C76.239 43.3542 75.9509 44.0406 75.585 44.8154C75.2178 45.5883 74.9192 46.3552 74.9189 46.5186C74.9189 46.7985 75.0179 46.8154 76.6963 46.8154C77.6732 46.8154 78.4742 46.7648 78.4785 46.7041C78.4815 46.6434 78.1486 45.8755 77.7383 45C77.3281 44.1248 77.0073 43.3503 77.0264 43.2773C77.0456 43.2063 76.9559 43.0742 76.8271 42.9854Z" fill="white"/>
<path d="M233.099 19.886C233.31 19.5586 233.376 19.5496 237.377 19.6311L237.641 20.1497C237.784 20.4343 238.426 21.7676 239.065 23.1125C239.705 24.4562 240.463 26.0564 240.75 26.6682C241.037 27.2787 241.687 28.6462 242.193 29.7053C242.7 30.7645 243.413 32.2637 243.779 33.0383C244.147 33.8116 244.675 34.9123 244.953 35.4827C245.231 36.0516 245.457 36.5674 245.455 36.6301C245.452 36.6909 244.501 36.7433 241.229 36.7493L240.775 35.7444C240.525 35.1933 240.159 34.3591 239.599 33.0422H235.377C233.056 33.0422 231.084 33.0919 230.998 33.1526C230.912 33.2118 230.506 34.0261 229.354 36.6672L227.254 36.7043C226.102 36.725 225.173 36.7076 225.186 36.6663C225.203 36.6248 225.579 35.8087 226.019 34.8518C226.458 33.8949 227.052 32.6117 227.34 32.0012C227.627 31.3894 228.363 29.8648 228.977 28.6116C229.588 27.3583 230.077 26.3091 230.062 26.2825C230.048 26.2503 230.309 25.679 230.643 25.0061C230.977 24.332 231.617 22.979 232.064 22.0012C232.513 21.0235 232.979 20.0712 233.099 19.886ZM235.258 23.7053C235.153 23.7053 234.961 23.9558 234.832 24.261C234.703 24.5663 234.432 25.1839 234.23 25.6311C234.027 26.0786 233.536 27.1957 233.138 28.1125C232.738 29.0285 232.413 29.8439 232.412 29.927C232.412 30.0203 233.474 30.0754 235.301 30.0754C237.981 30.0754 238.183 30.0576 238.111 29.8167C238.067 29.6744 237.45 28.2399 236.74 26.6311C236.025 25.0131 235.364 23.7087 235.258 23.7053Z" fill="white"/>
<path d="M175.142 19.5923C179.273 19.6382 180.171 19.687 180.922 19.9077C181.411 20.0514 182.077 20.2923 182.403 20.4419C182.729 20.5915 183.342 20.9711 183.765 21.2837C184.188 21.5963 184.736 22.1859 184.981 22.5933C185.229 23.0007 185.54 23.7671 185.676 24.2974C185.849 24.9757 185.895 25.5671 185.834 26.2974C185.787 26.8673 185.66 27.5659 185.552 27.8521C185.444 28.1364 185.249 28.5704 185.117 28.8149C184.987 29.0594 184.523 29.5902 184.086 29.9946C183.649 30.399 182.859 30.9232 182.329 31.1587C181.8 31.3942 180.833 31.6809 180.181 31.7935C179.496 31.9134 177.979 32.0005 174.182 32.0005V36.7407H170.033L170.008 28.2476C169.994 23.4107 170.041 19.7097 170.116 19.647C170.189 19.5877 172.45 19.5627 175.142 19.5923ZM174.191 25.769L174.183 28.7417C177.914 28.7402 179.232 28.6762 179.517 28.5991C179.802 28.5206 180.264 28.3042 180.544 28.1177C180.825 27.9311 181.19 27.5461 181.354 27.2603C181.574 26.8826 181.655 26.4793 181.652 25.7788C181.651 25.0605 181.567 24.666 181.319 24.2231C181.079 23.7936 180.774 23.5283 180.216 23.2603C179.496 22.9151 179.26 22.8862 176.821 22.8433L174.202 22.7964L174.191 25.769Z" fill="white"/>
<path d="M137.466 41.0374C138.76 41.0374 140.137 41.1039 140.524 41.1838C140.911 41.2639 141.511 41.5144 141.856 41.7395C142.202 41.9647 142.627 42.3829 142.799 42.6672C142.972 42.9517 143.148 43.5188 143.191 43.926C143.234 44.3378 143.187 44.9296 143.083 45.26C142.981 45.5858 142.687 46.0758 142.433 46.3499C142.178 46.6237 141.67 46.9821 141.303 47.1467C140.801 47.3704 140.17 47.4687 138.754 47.5383C137.04 47.6212 136.866 47.6568 136.793 47.926C136.75 48.089 136.713 48.6734 136.71 50.2229L135.154 50.2288L135.045 49.6702C134.984 49.3635 134.936 47.4445 134.936 45.4075C134.937 43.3723 134.975 41.5576 135.022 41.3713C135.107 41.0441 135.146 41.0374 137.466 41.0374ZM136.596 44.2473L136.59 46.2463C139.106 46.2453 139.995 46.2025 140.187 46.1506C140.379 46.0977 140.69 45.9519 140.879 45.8264C141.069 45.7008 141.315 45.4416 141.426 45.2493C141.573 44.9952 141.629 44.7243 141.627 44.2532C141.626 43.7698 141.569 43.5043 141.402 43.2063C141.241 42.9172 141.034 42.7392 140.657 42.5588C140.172 42.3267 140.013 42.3075 138.369 42.2786L136.603 42.2463L136.596 44.2473Z" fill="white"/>
<path d="M135.14 19.5925C139.259 19.6384 140.172 19.6873 140.92 19.908C141.409 20.0501 142.043 20.2751 142.327 20.407C142.613 20.5403 143.147 20.8491 143.513 21.0935C143.88 21.3379 144.302 21.6756 144.453 21.8445C144.603 22.0119 144.883 22.4161 145.075 22.7419C145.268 23.0679 145.537 23.7673 145.673 24.2976C145.852 24.9938 145.894 25.5585 145.827 26.3347C145.766 27.0383 145.59 27.7274 145.314 28.3347C145.06 28.8961 144.637 29.4962 144.24 29.8591C143.88 30.1895 143.302 30.6221 142.954 30.822C142.607 31.0217 142.322 31.2684 142.324 31.3708C142.326 31.4731 143.162 32.6734 144.18 34.0378C145.199 35.4022 146.031 36.5699 146.031 36.6306C146.029 36.6912 145.08 36.7395 143.92 36.738C141.929 36.7366 141.791 36.7176 141.499 36.405C141.327 36.2227 141.014 35.8079 140.799 35.4822C140.586 35.1563 139.925 34.257 138.254 32.075L134.18 32.0007V36.7419H130.031L130.006 28.2488C129.993 23.4137 130.039 19.7128 130.114 19.6472C130.187 19.588 132.448 19.5629 135.14 19.5925ZM134.224 25.8064L134.254 28.8152C138.952 28.7944 139.205 28.767 139.95 28.4353C140.495 28.1924 140.892 27.8821 141.177 27.4822C141.547 26.9578 141.595 26.7639 141.592 25.7791C141.589 24.8666 141.527 24.5742 141.244 24.1492C141.052 23.8589 140.579 23.4679 140.17 23.2605C139.485 22.9138 139.272 22.8865 136.815 22.8435L134.193 22.7966L134.224 25.8064Z" fill="white"/>
<path d="M195.891 19.4688C196.541 19.3428 197.535 19.2911 198.558 19.3311C199.454 19.3651 200.587 19.4986 201.076 19.626C201.565 19.7535 202.523 20.1403 203.206 20.4854C203.888 20.8305 204.821 21.451 205.28 21.8643C205.738 22.2775 206.385 23.043 206.719 23.5674C207.054 24.0918 207.479 24.9203 207.664 25.4092C207.894 26.0135 208.025 26.7468 208.075 27.7051C208.127 28.7184 208.082 29.3829 207.908 30.0762C207.776 30.6066 207.452 31.4717 207.187 32.002C206.875 32.6241 206.311 33.3631 205.594 34.0889C204.724 34.9687 204.21 35.3438 203.224 35.8223C202.532 36.1584 201.565 36.5404 201.076 36.6709C200.587 36.8027 199.52 36.9463 198.705 36.9922C197.691 37.0485 196.851 37.0041 196.039 36.8516C195.387 36.7286 194.387 36.4449 193.816 36.2197C193.246 35.9931 192.414 35.5745 191.965 35.2871C191.516 35.0012 190.801 34.3942 190.374 33.9395C189.947 33.4847 189.373 32.6798 189.096 32.1494C188.819 31.619 188.485 30.7539 188.354 30.2236C188.223 29.6934 188.115 28.7622 188.113 28.1504C188.113 27.5402 188.212 26.6394 188.335 26.1504C188.458 25.6615 188.775 24.8282 189.039 24.2979C189.303 23.769 189.918 22.9115 190.408 22.3945C190.899 21.8761 191.664 21.2306 192.113 20.958C192.562 20.6854 193.36 20.2832 193.891 20.0654C194.421 19.8477 195.32 19.5784 195.891 19.4688ZM198.41 22.7246C197.595 22.6994 196.7 22.7307 196.422 22.793C196.143 22.8552 195.644 23.0402 195.311 23.2031C194.979 23.3647 194.406 23.7693 194.04 24.0996C193.668 24.4359 193.163 25.1186 192.896 25.6475C192.448 26.5363 192.417 26.6904 192.414 28.1865C192.411 29.0612 192.468 29.8947 192.537 30.0381C192.607 30.1803 192.782 30.532 192.927 30.8164C193.072 31.1009 193.499 31.6563 193.874 32.0488C194.25 32.4413 194.824 32.8845 195.15 33.0342C195.476 33.1823 196.01 33.3779 196.336 33.4668C196.662 33.5557 197.462 33.6308 198.113 33.6309C198.783 33.6323 199.654 33.5288 200.113 33.3926C200.562 33.2607 201.196 32.9688 201.521 32.7451C201.847 32.5229 202.315 32.1139 202.561 31.8369C202.808 31.5614 203.172 31.0011 203.37 30.5938C203.649 30.0235 203.743 29.5475 203.789 28.5195C203.823 27.7197 203.773 26.9195 203.66 26.5195C203.558 26.1537 203.324 25.5865 203.141 25.2607C202.957 24.9349 202.517 24.4065 202.164 24.085C201.81 23.7635 201.155 23.3367 200.706 23.1367C200.054 22.8449 199.597 22.7631 198.41 22.7246Z" fill="white"/>
<path d="M232.264 8.04883C233.454 8.07254 233.801 8.13928 234.522 8.48438C234.991 8.70807 235.68 9.20807 236.052 9.59473C236.465 10.0242 236.845 10.6148 237.027 11.1123C237.247 11.7108 237.312 12.184 237.271 12.8906C237.234 13.5324 237.094 14.0943 236.852 14.5762C236.65 14.9747 236.218 15.5585 235.893 15.874C235.567 16.1895 234.934 16.6293 234.485 16.8516C233.755 17.2145 233.509 17.2563 232.115 17.2578C230.726 17.2608 230.472 17.2173 229.745 16.8633C229.296 16.644 228.679 16.2279 228.374 15.9375C228.069 15.6456 227.653 15.0752 227.448 14.668C227.245 14.2606 227.037 13.6772 226.986 13.3721C226.936 13.067 226.937 12.4493 226.987 12.002C227.048 11.4761 227.252 10.8999 227.562 10.377C227.83 9.92511 228.367 9.31992 228.782 9.00586C229.19 8.6978 229.824 8.34942 230.189 8.23242C230.613 8.09621 231.371 8.02957 232.264 8.04883ZM232.042 8.74707C231.073 8.75448 230.722 8.82569 230.116 9.13672C229.709 9.34556 229.219 9.65966 229.027 9.83301C228.838 10.0078 228.572 10.3503 228.44 10.5947C228.309 10.8392 228.116 11.2718 228.013 11.5576C227.909 11.842 227.822 12.3585 227.822 12.7051C227.821 13.0517 227.958 13.6524 228.125 14.0391C228.294 14.4257 228.643 14.9682 228.902 15.2422C229.163 15.5177 229.709 15.8992 230.116 16.0918C230.715 16.3762 231.098 16.4434 232.116 16.4434C233.123 16.4433 233.524 16.3732 234.116 16.0977C234.523 15.908 235.073 15.5101 235.338 15.2109C235.603 14.9133 235.922 14.4185 236.045 14.1133C236.169 13.8082 236.271 13.1578 236.271 12.6689C236.271 12.1803 236.162 11.5136 236.027 11.1875C235.893 10.8616 235.607 10.3722 235.393 10.0996C235.179 9.82855 234.605 9.41086 234.116 9.1709C233.35 8.79611 233.064 8.73819 232.042 8.74707Z" fill="white"/>
<path d="M215.796 8.03564C217.643 8.08452 218.432 8.16446 218.932 8.354C219.297 8.49318 219.789 8.78761 220.023 9.0083C220.257 9.22754 220.542 9.62496 220.653 9.89014C220.766 10.1553 220.86 10.7551 220.861 11.2231C220.864 11.9416 220.788 12.1875 220.379 12.7993C220.096 13.2243 219.664 13.6391 219.34 13.7993C219.036 13.95 218.786 14.1069 218.784 14.1489C218.784 14.1889 218.933 14.4414 219.117 14.7065C219.301 14.9718 219.784 15.6135 220.191 16.1304C220.798 16.9003 220.892 17.0945 220.71 17.1997C220.587 17.2722 220.405 17.3314 220.303 17.3315C220.201 17.333 219.714 16.8171 219.223 16.186C218.731 15.5549 218.197 14.8883 218.037 14.7046C217.766 14.3937 217.628 14.3716 214.191 14.3716L214.117 17.2603H213.229L213.206 12.8179C213.194 10.3766 213.216 8.28704 213.255 8.17334C213.311 8.01038 213.802 7.98379 215.796 8.03564ZM216.143 8.7417C215.178 8.7417 214.334 8.7865 214.266 8.84131C214.198 8.89518 214.153 9.96148 214.166 11.2114L214.191 13.4829C217.794 13.477 218.221 13.4275 218.747 13.1831C219.094 13.0216 219.513 12.6738 219.681 12.4087C219.921 12.0295 219.975 11.7326 219.939 11.0142C219.904 10.2796 219.822 10.0249 219.524 9.7124C219.32 9.49908 218.871 9.19365 218.524 9.03369C218.011 8.79533 217.572 8.7417 216.143 8.7417Z" fill="white"/>
<path d="M206.344 8.00146C206.666 8.00157 206.86 8.11856 207.078 8.4458C207.241 8.69024 207.374 8.92436 207.374 8.96436C207.374 9.00474 208.242 10.8061 209.301 12.9644C210.36 15.1227 211.227 16.9571 211.227 17.0386C211.226 17.1198 211.026 17.1859 210.782 17.186C210.394 17.186 210.297 17.0975 210.026 16.4829C209.856 16.0963 209.606 15.5611 209.227 14.813L203.522 14.8159L202.967 16.0073C202.438 17.1403 202.389 17.1963 201.93 17.1919C201.665 17.1889 201.475 17.1362 201.505 17.0757C201.536 17.0149 202.309 15.431 203.225 13.5571C204.139 11.6834 205.116 9.66712 205.396 9.07568C205.859 8.09941 205.945 8.00146 206.344 8.00146ZM206.431 9.18604C206.316 9.18838 205.767 10.145 205.175 11.3716C204.594 12.573 204.119 13.6737 204.117 13.8159C204.114 14.0513 204.322 14.0747 206.41 14.0747C207.841 14.0747 208.705 14.0189 208.707 13.9272C208.707 13.8458 208.582 13.4956 208.43 13.1489C208.277 12.8022 207.855 11.8865 207.489 11.1118C207.125 10.3373 206.782 9.58837 206.729 9.4458C206.675 9.30358 206.542 9.18604 206.431 9.18604Z" fill="white"/>
</svg>
