<svg width="219" height="56" viewBox="0 0 219 56" fill="none" xmlns="http://www.w3.org/2000/svg">
<g clip-path="url(#clip0_247_467)">
<path d="M22.191 39.4585L33.5704 30.4913V30.5069L33.6052 30.4794V38.4874L33.5704 38.5154V38.5435L22.191 47.6936L13.3955 40.6779L8.43529 36.7402V48.2427L8.42542 48.2341V48.2427L7.61477 47.5471L0.533203 41.5449L0.570494 41.5035L0.533203 41.4716V22.2564L22.191 39.4585ZM43.8486 41.8375L36.3235 48.2427V28.1125L43.8486 22.2564V41.8375ZM43.8486 18.0474L28.2477 30.3084L22.191 35.4324L0.533203 18.0474V8.34829L22.8078 25.9979L44.0054 7.76587L43.8486 18.0474Z" fill="url(#paint0_linear_247_467)"/>
<path d="M22.19 39.4584L21.8458 39.8874L22.1887 40.1597L22.5327 39.8887L22.19 39.4584ZM33.5694 30.4912H34.1212V29.3563L33.227 30.061L33.5694 30.4912ZM33.5694 30.5068H33.0178V31.6431L33.9124 30.9367L33.5694 30.5068ZM33.6043 30.4792H34.1561V29.343L33.2613 30.0493L33.6043 30.4792ZM33.6043 38.4872L33.9504 38.9148L34.1561 38.7499V38.4872H33.6043ZM33.5694 38.5152L33.2233 38.0877L33.0178 38.2524V38.5152H33.5694ZM33.5694 38.5434L33.9163 38.9703L34.1212 38.8056V38.5434H33.5694ZM22.19 47.6935L21.845 48.1219L22.1914 48.3981L22.5368 48.1204L22.19 47.6935ZM13.3947 40.6778L13.7398 40.2494L13.7391 40.249L13.7386 40.2486L13.3947 40.6778ZM8.43451 36.7401L8.77862 36.3109L7.88272 35.5998V36.7401H8.43451ZM8.43451 48.2425L8.07592 48.6598L8.98614 49.4341V48.2425H8.43451ZM8.42447 48.234L8.78306 47.8168L7.87269 47.0423V48.234H8.42447ZM8.42447 48.2425L8.06424 48.6583L8.97626 49.4406V48.2425H8.42447ZM7.61382 47.547L7.97406 47.1312L7.97291 47.1301L7.97159 47.1291L7.61382 47.547ZM0.53231 41.5448L0.12116 41.1788L-0.255859 41.598L0.174495 41.9627L0.53231 41.5448ZM0.569617 41.5034L0.980768 41.8695L1.35573 41.4526L0.929637 41.0875L0.569617 41.5034ZM0.53231 41.4715H-0.0194284V41.7231L0.172291 41.8874L0.53231 41.4715ZM0.53231 22.2563L0.876532 21.8272L-0.0194284 21.1156V22.2563H0.53231ZM43.8477 41.8374L44.2064 42.2546L44.3995 42.0902V41.8374H43.8477ZM36.3226 48.2425H35.7708V49.4346L36.6812 48.6596L36.3226 48.2425ZM36.3226 28.1123L35.9826 27.6799L35.7708 27.8448V28.1123H36.3226ZM43.8477 22.2563H44.3995V21.13L43.5079 21.8238L43.8477 22.2563ZM43.8477 18.0472L44.1898 18.4781L44.3955 18.3163L44.3995 18.0556L43.8477 18.0472ZM28.2469 30.3083L27.9049 29.8775L27.897 29.8837L27.8894 29.8901L28.2469 30.3083ZM22.19 35.4323L21.8436 35.8597L22.1993 36.1451L22.5475 35.8507L22.19 35.4323ZM0.53231 18.0472H-0.0194284V18.3097L0.185901 18.4744L0.53231 18.0472ZM0.53231 8.34818L0.876005 7.91874L-0.0194284 7.20921V8.34818H0.53231ZM22.8068 25.9978L22.4632 26.4273L22.8213 26.711L23.1677 26.4132L22.8068 25.9978ZM44.0045 7.76576L44.5563 7.77409L44.5749 6.54956L43.6438 7.35046L44.0045 7.76576ZM22.19 39.4584L22.5327 39.8887L33.912 30.9217L33.5694 30.4912L33.227 30.061L21.8476 39.0281L22.19 39.4584ZM33.5694 30.4912H33.0178V30.5068H33.5694H34.1212V30.4912H33.5694ZM33.5694 30.5068L33.9124 30.9367L33.9471 30.9094L33.6043 30.4792L33.2613 30.0493L33.2265 30.0768L33.5694 30.5068ZM33.6043 30.4792H33.0525V38.4872H33.6043H34.1561V30.4792H33.6043ZM33.6043 38.4872L33.2581 38.0599L33.2233 38.0877L33.5694 38.5152L33.9157 38.9426L33.9504 38.9148L33.6043 38.4872ZM33.5694 38.5152H33.0178V38.5434H33.5694H34.1212V38.5152H33.5694ZM33.5694 38.5434L33.2227 38.1164L21.8433 47.2665L22.19 47.6935L22.5368 48.1204L33.9163 38.9703L33.5694 38.5434ZM22.19 47.6935L22.5351 47.2652L13.7398 40.2494L13.3947 40.6778L13.0496 41.106L21.845 48.1219L22.19 47.6935ZM13.3947 40.6778L13.7386 40.2486L8.77862 36.3109L8.43451 36.7401L8.09024 37.1693L13.0504 41.1068L13.3947 40.6778ZM8.43451 36.7401H7.88272V48.2425H8.43451H8.98614V36.7401H8.43451ZM8.43451 48.2425L8.79294 47.8253L8.78306 47.8168L8.42447 48.234L8.06589 48.6512L8.07592 48.6598L8.43451 48.2425ZM8.42447 48.234H7.87269V48.2425H8.42447H8.97626V48.234H8.42447ZM8.42447 48.2425L8.78487 47.8268L7.97406 47.1312L7.61382 47.547L7.25359 47.9627L8.06424 48.6583L8.42447 48.2425ZM7.61382 47.547L7.97159 47.1291L0.890141 41.1269L0.53231 41.5448L0.174495 41.9627L7.25606 47.9648L7.61382 47.547ZM0.53231 41.5448L0.943478 41.9109L0.980768 41.8695L0.569617 41.5034L0.158451 41.1373L0.12116 41.1788L0.53231 41.5448ZM0.569617 41.5034L0.929637 41.0875L0.892347 41.0555L0.53231 41.4715L0.172291 41.8874L0.209516 41.9195L0.569617 41.5034ZM0.53231 41.4715H1.08405V22.2563H0.53231H-0.0194284V41.4715H0.53231ZM0.53231 22.2563L0.188105 22.6853L21.8458 39.8874L22.19 39.4584L22.5343 39.0294L0.876532 21.8272L0.53231 22.2563ZM43.8477 41.8374L43.4891 41.4204L35.9638 47.8253L36.3226 48.2425L36.6812 48.6596L44.2064 42.2546L43.8477 41.8374ZM36.3226 48.2425H36.8744V28.1123H36.3226H35.7708V48.2425H36.3226ZM36.3226 28.1123L36.6624 28.5448L44.1877 22.6887L43.8477 22.2563L43.5079 21.8238L35.9826 27.6799L36.3226 28.1123ZM43.8477 22.2563H43.2961V41.8374H43.8477H44.3995V22.2563H43.8477ZM43.8477 18.0472L43.5057 17.6164L27.9049 29.8775L28.2469 30.3083L28.5888 30.7391L44.1898 18.4781L43.8477 18.0472ZM28.2469 30.3083L27.8894 29.8901L21.8326 35.0143L22.19 35.4323L22.5475 35.8507L28.6043 30.7265L28.2469 30.3083ZM22.19 35.4323L22.5365 35.0051L0.878737 17.62L0.53231 18.0472L0.185901 18.4744L21.8436 35.8597L22.19 35.4323ZM0.53231 18.0472H1.08405V8.34818H0.53231H-0.0194284V18.0472H0.53231ZM0.53231 8.34818L0.188615 8.77759L22.4632 26.4273L22.8068 25.9978L23.1506 25.5684L0.876005 7.91874L0.53231 8.34818ZM22.8068 25.9978L23.1677 26.4132L44.3654 8.18106L44.0045 7.76576L43.6438 7.35046L22.4461 25.5825L22.8068 25.9978ZM44.0045 7.76576L43.4529 7.75742L43.2961 18.0389L43.8477 18.0472L44.3995 18.0556L44.5563 7.77409L44.0045 7.76576Z" fill="white"/>
<path d="M28.2465 30.3084L22.3359 26.4027L44.0043 7.76587L43.8474 18.0474L28.2465 30.3084Z" fill="#132334"/>
<path d="M0.533203 41.4716V22.2563L22.191 39.4585L33.5704 30.4915V38.5435L22.191 47.6936L8.42542 36.7135V48.2426L0.533203 41.4716Z" fill="url(#paint1_linear_247_467)"/>
<path d="M0.533203 18.0472V8.34814L28.2478 30.3083L22.191 35.4323L0.533203 18.0472Z" fill="url(#paint2_linear_247_467)"/>
<path d="M0.533203 41.5449L8.43529 48.2426V36.7402L22.191 47.6602L33.6051 38.4873V30.4795L22.191 39.5066L10.6303 30.3337L0.533203 41.5449Z" fill="url(#paint3_linear_247_467)"/>
<path d="M43.8475 22.2561L36.3223 28.1122V48.2424L43.8475 41.8373V22.2561Z" fill="#132334"/>
<path d="M17.946 22.1802L12.8242 27.8586L22.1898 35.4297L28.1895 30.3337L17.946 22.1802Z" fill="url(#paint4_linear_247_467)"/>
<path d="M28.2465 30.3084L22.3359 26.4027L44.0043 7.76587L43.8474 18.0474L28.2465 30.3084Z" fill="#132334"/>
<path d="M0.533203 41.4716V22.2563L22.191 39.4585L33.5704 30.4915V38.5435L22.191 47.6936L8.42542 36.7135V48.2426L0.533203 41.4716Z" fill="url(#paint5_linear_247_467)"/>
<path d="M0.533203 18.0472V8.34814L28.2478 30.3083L22.191 35.4323L0.533203 18.0472Z" fill="url(#paint6_linear_247_467)"/>
<path d="M0.533203 41.5449L8.43529 48.2426V36.7402L22.191 47.6602L33.6051 38.4873V30.4795L22.191 39.5066L10.6303 30.3337L0.533203 41.5449Z" fill="url(#paint7_linear_247_467)"/>
<path d="M43.8475 22.2561L36.3223 28.1122V48.2424L43.8475 41.8373V22.2561Z" fill="#132334"/>
<path d="M17.946 22.1802L12.8242 27.8586L22.1898 35.4297L28.1895 30.3337L17.946 22.1802Z" fill="url(#paint8_linear_247_467)"/>
<path d="M57.4158 38.4389H53.9414V18.3076H57.4158L64.0289 34.3354L70.6418 18.3076H74.1721V38.4389H70.6977V32.2426C70.6977 28.1941 70.6977 27.0099 70.8939 25.5779L65.6821 38.4389H62.3755L57.1917 25.6054C57.3879 26.8171 57.4158 28.7174 57.4158 31.2233V38.4389ZM81.5918 38.4389H77.8649L85.2623 18.3076H88.9332L96.3306 38.4389H92.5478L90.8947 33.7845H83.2449L81.5918 38.4389ZM86.6354 24.3112L84.3099 30.8103H89.8577L87.5042 24.3112C87.336 23.7878 87.1399 23.1819 87.0836 22.7689C86.9997 23.1544 86.8315 23.7603 86.6354 24.3112ZM102.781 38.4389L95.0479 18.3076H98.8587L103.342 29.9016C103.79 31.1133 104.182 32.2975 104.631 33.9223C105.135 32.1598 105.555 30.9206 105.948 29.9016L110.375 18.3076H114.102L106.48 38.4389H102.781ZM130.499 38.4389H117.778V18.3076H130.499V21.5572H121.364V26.7346H129.546V29.8466H121.364V35.189H130.499V38.4389ZM139.095 18.3076V35.189H147.669V38.4389H135.508V18.3076H139.095ZM155.294 18.3076V35.189H163.868V38.4389H151.707V18.3076H155.294ZM171.492 18.3076V38.4389H167.905V18.3076H171.492ZM177.013 31.0858V18.3076H180.6V30.8656C180.6 33.757 182.197 35.3543 185.111 35.3543C188.025 35.3543 189.65 33.7295 189.65 30.8656V18.3076H193.237V31.0858C193.237 35.7949 190.099 38.7692 185.111 38.7692C180.151 38.7692 177.013 35.8224 177.013 31.0858ZM202.244 38.4389H198.769V18.3076H202.244L208.857 34.3354L215.47 18.3076H219.001V38.4389H215.526V32.2426C215.526 28.1941 215.526 27.0099 215.722 25.5779L210.51 38.4389H207.204L202.02 25.6054C202.216 26.8171 202.244 28.7174 202.244 31.2233V38.4389Z" fill="white"/>
</g>
<defs>
<linearGradient id="paint0_linear_247_467" x1="8.28899" y1="48.2427" x2="29.9876" y2="27.3126" gradientUnits="userSpaceOnUse">
<stop stop-color="#057A5D"/>
<stop offset="1" stop-color="#006C49"/>
</linearGradient>
<linearGradient id="paint1_linear_247_467" x1="9.02065" y1="21.3066" x2="31.1664" y2="40.782" gradientUnits="userSpaceOnUse">
<stop stop-color="#04A15E"/>
<stop offset="1" stop-color="#013B22"/>
</linearGradient>
<linearGradient id="paint2_linear_247_467" x1="9.02065" y1="21.3065" x2="31.1664" y2="40.7819" gradientUnits="userSpaceOnUse">
<stop stop-color="#04A15E"/>
<stop offset="1" stop-color="#013B22"/>
</linearGradient>
<linearGradient id="paint3_linear_247_467" x1="14.1424" y1="51.009" x2="33.504" y2="30.9641" gradientUnits="userSpaceOnUse">
<stop stop-color="#057A5D"/>
<stop offset="1" stop-color="#006C49"/>
</linearGradient>
<linearGradient id="paint4_linear_247_467" x1="8.28781" y1="48.2426" x2="29.9864" y2="27.3124" gradientUnits="userSpaceOnUse">
<stop stop-color="#057A5D"/>
<stop offset="1" stop-color="#006C49"/>
</linearGradient>
<linearGradient id="paint5_linear_247_467" x1="9.02065" y1="21.3066" x2="31.1664" y2="40.782" gradientUnits="userSpaceOnUse">
<stop stop-color="#04A15E"/>
<stop offset="1" stop-color="#013B22"/>
</linearGradient>
<linearGradient id="paint6_linear_247_467" x1="9.02065" y1="21.3065" x2="31.1664" y2="40.7819" gradientUnits="userSpaceOnUse">
<stop stop-color="#04A15E"/>
<stop offset="1" stop-color="#013B22"/>
</linearGradient>
<linearGradient id="paint7_linear_247_467" x1="14.1424" y1="51.009" x2="33.504" y2="30.9641" gradientUnits="userSpaceOnUse">
<stop stop-color="#057A5D"/>
<stop offset="1" stop-color="#006C49"/>
</linearGradient>
<linearGradient id="paint8_linear_247_467" x1="8.28781" y1="48.2426" x2="29.9864" y2="27.3124" gradientUnits="userSpaceOnUse">
<stop stop-color="#057A5D"/>
<stop offset="1" stop-color="#006C49"/>
</linearGradient>
<clipPath id="clip0_247_467">
<rect width="219" height="56" fill="white"/>
</clipPath>
</defs>
</svg>
