<svg width="1003" height="342" viewBox="0 0 1003 342" fill="none" xmlns="http://www.w3.org/2000/svg">
<g filter="url(#filter0_d_55_4)">
<path d="M200.395 240.979L269.543 186.215V186.31L269.755 186.142V235.048L269.543 235.219V235.391L200.395 291.272L146.948 248.426L116.807 224.378V294.625L116.747 294.573V294.625L111.821 290.377L68.7891 253.721L69.0157 253.468L68.7891 253.273V135.923L200.395 240.979ZM332 255.508L286.273 294.625V171.687L332 135.923V255.508ZM332 110.218L237.199 185.098L200.395 216.391L68.7891 110.218V50.9843L204.143 158.773L332.953 47.4275L332 110.218Z" fill="url(#paint0_linear_55_4)"/>
<path d="M200.395 240.979L198.303 243.599L200.387 245.262L202.477 243.607L200.395 240.979ZM269.543 186.215H272.896V179.284L267.462 183.588L269.543 186.215ZM269.543 186.31H266.191V193.25L271.627 188.936L269.543 186.31ZM269.755 186.142H273.108V179.203L267.671 183.516L269.755 186.142ZM269.755 235.048L271.858 237.659L273.108 236.652V235.048H269.755ZM269.543 235.219L267.44 232.608L266.191 233.614V235.219H269.543ZM269.543 235.391L271.651 237.998L272.896 236.992V235.391H269.543ZM200.395 291.272L198.298 293.888L200.403 295.575L202.502 293.879L200.395 291.272ZM146.949 248.426L149.046 245.81L149.042 245.807L149.039 245.805L146.949 248.426ZM116.808 224.378L118.899 221.757L113.455 217.414V224.378H116.808ZM116.808 294.625L114.629 297.173L120.16 301.902V294.625H116.808ZM116.747 294.573L118.926 292.025L113.394 287.295V294.573H116.747ZM116.747 294.625L114.558 297.164L120.1 301.942V294.625H116.747ZM111.821 290.377L114.01 287.838L114.003 287.831L113.995 287.825L111.821 290.377ZM68.7894 253.721L66.291 251.486L64 254.046L66.6151 256.273L68.7894 253.721ZM69.0161 253.468L71.5145 255.704L73.793 253.158L71.2038 250.928L69.0161 253.468ZM68.7894 253.273H65.4367V254.81L66.6017 255.813L68.7894 253.273ZM68.7894 135.923L70.8811 133.303L65.4367 128.957V135.923H68.7894ZM332 255.508L334.18 258.056L335.353 257.052V255.508H332ZM286.273 294.625H282.92V301.905L288.452 297.172L286.273 294.625ZM286.273 171.687L284.207 169.046L282.92 170.053V171.687H286.273ZM332 135.923H335.353V129.045L329.935 133.282L332 135.923ZM332 110.218L334.079 112.849L335.329 111.861L335.353 110.269L332 110.218ZM237.2 185.098L235.122 182.467L235.074 182.505L235.028 182.544L237.2 185.098ZM200.395 216.391L198.29 219.001L200.451 220.744L202.567 218.946L200.395 216.391ZM68.7894 110.218H65.4367V111.821L66.6844 112.827L68.7894 110.218ZM68.7894 50.9844L70.8779 48.3618L65.4367 44.0286V50.9844H68.7894ZM204.143 158.773L202.055 161.396L204.231 163.129L206.336 161.31L204.143 158.773ZM332.953 47.4275L336.306 47.4784L336.419 40L330.761 44.8912L332.953 47.4275ZM200.395 240.979L202.477 243.607L271.625 188.844L269.543 186.215L267.462 183.588L198.314 238.351L200.395 240.979ZM269.543 186.215H266.191V186.31H269.543H272.896V186.215H269.543ZM269.543 186.31L271.627 188.936L271.838 188.769L269.755 186.142L267.671 183.516L267.459 183.684L269.543 186.31ZM269.755 186.142H266.402V235.048H269.755H273.108V186.142H269.755ZM269.755 235.048L267.651 232.438L267.44 232.608L269.543 235.219L271.647 237.829L271.858 237.659L269.755 235.048ZM269.543 235.219H266.191V235.391H269.543H272.896V235.219H269.543ZM269.543 235.391L267.436 232.783L198.288 288.664L200.395 291.272L202.502 293.879L271.651 237.998L269.543 235.391ZM200.395 291.272L202.492 288.656L149.046 245.81L146.949 248.426L144.852 251.041L198.298 293.888L200.395 291.272ZM146.949 248.426L149.039 245.805L118.899 221.757L116.808 224.378L114.716 226.999L144.857 251.046L146.949 248.426ZM116.808 224.378H113.455V294.625H116.808H120.16V224.378H116.808ZM116.808 294.625L118.986 292.077L118.926 292.025L116.747 294.573L114.568 297.121L114.629 297.173L116.808 294.625ZM116.747 294.573H113.394V294.625H116.747H120.1V294.573H116.747ZM116.747 294.625L118.937 292.086L114.01 287.838L111.821 290.377L109.632 292.916L114.558 297.164L116.747 294.625ZM111.821 290.377L113.995 287.825L70.9638 251.169L68.7894 253.721L66.6151 256.273L109.647 292.929L111.821 290.377ZM68.7894 253.721L71.2879 255.957L71.5145 255.704L69.0161 253.468L66.5176 251.232L66.291 251.486L68.7894 253.721ZM69.0161 253.468L71.2038 250.928L70.9772 250.733L68.7894 253.273L66.6017 255.813L66.8279 256.009L69.0161 253.468ZM68.7894 253.273H72.1421V135.923H68.7894H65.4367V253.273H68.7894ZM68.7894 135.923L66.6978 138.543L198.303 243.599L200.395 240.979L202.487 238.359L70.8811 133.303L68.7894 135.923ZM332 255.508L329.821 252.961L284.093 292.077L286.273 294.625L288.452 297.172L334.18 258.056L332 255.508ZM286.273 294.625H289.626V171.687H286.273H282.92V294.625H286.273ZM286.273 171.687L288.338 174.328L334.066 138.564L332 135.923L329.935 133.282L284.207 169.046L286.273 171.687ZM332 135.923H328.648V255.508H332H335.353V135.923H332ZM332 110.218L329.922 107.587L235.122 182.467L237.2 185.098L239.278 187.729L334.079 112.849L332 110.218ZM237.2 185.098L235.028 182.544L198.223 213.838L200.395 216.391L202.567 218.946L239.372 187.652L237.2 185.098ZM200.395 216.391L202.5 213.782L70.8945 107.609L68.7894 110.218L66.6844 112.827L198.29 219.001L200.395 216.391ZM68.7894 110.218H72.1421V50.9844H68.7894H65.4367V110.218H68.7894ZM68.7894 50.9844L66.7009 53.6069L202.055 161.396L204.143 158.773L206.232 156.151L70.8779 48.3618L68.7894 50.9844ZM204.143 158.773L206.336 161.31L335.146 49.9638L332.953 47.4275L330.761 44.8912L201.951 156.237L204.143 158.773ZM332.953 47.4275L329.601 47.3766L328.648 110.167L332 110.218L335.353 110.269L336.306 47.4784L332.953 47.4275Z" fill="white"/>
<path d="M237.2 185.098L201.284 161.245L332.954 47.4275L332.001 110.218L237.2 185.098Z" fill="#132334"/>
<path d="M68.7891 253.273V135.923L200.395 240.979L269.543 186.216V235.391L200.395 291.272L116.747 224.215V294.625L68.7891 253.273Z" fill="url(#paint1_linear_55_4)"/>
<path d="M68.7891 110.218V50.9842L237.2 185.098L200.395 216.391L68.7891 110.218Z" fill="url(#paint2_linear_55_4)"/>
<path d="M68.7891 253.721L116.807 294.625V224.378L200.395 291.068L269.754 235.048V186.143L200.395 241.273L130.145 185.253L68.7891 253.721Z" fill="url(#paint3_linear_55_4)"/>
<path d="M332 135.923L286.272 171.687V294.625L332 255.508V135.923Z" fill="#132334"/>
<path d="M174.607 135.458L143.484 170.137L200.395 216.375L236.853 185.253L174.607 135.458Z" fill="url(#paint4_linear_55_4)"/>
<path d="M237.2 185.098L201.284 161.245L332.954 47.4275L332.001 110.218L237.2 185.098Z" fill="#132334"/>
<path d="M68.7891 253.273V135.923L200.395 240.979L269.543 186.216V235.391L200.395 291.272L116.747 224.215V294.625L68.7891 253.273Z" fill="url(#paint5_linear_55_4)"/>
<path d="M68.7891 110.218V50.9842L237.2 185.098L200.395 216.391L68.7891 110.218Z" fill="url(#paint6_linear_55_4)"/>
<path d="M68.7891 253.721L116.807 294.625V224.378L200.395 291.068L269.754 235.048V186.143L200.395 241.273L130.145 185.253L68.7891 253.721Z" fill="url(#paint7_linear_55_4)"/>
<path d="M332 135.923L286.272 171.687V294.625L332 255.508V135.923Z" fill="#132334"/>
<path d="M174.607 135.458L143.484 170.137L200.395 216.375L236.853 185.253L174.607 135.458Z" fill="url(#paint8_linear_55_4)"/>
</g>
<path d="M406.844 204.095H395.419V136.742H406.844L428.59 190.366L450.335 136.742H461.944V204.095H450.519V183.364C450.519 169.819 450.519 165.857 451.164 161.066L434.026 204.095H423.153L406.107 161.158C406.752 165.212 406.844 171.57 406.844 179.955V204.095ZM486.342 204.095H474.087L498.412 136.742H510.483L534.808 204.095H522.369L516.933 188.523H491.778L486.342 204.095ZM502.927 156.828L495.28 178.572H513.523L505.784 156.828C505.231 155.077 504.586 153.05 504.401 151.668C504.125 152.958 503.572 154.985 502.927 156.828ZM556.02 204.095L530.59 136.742H543.121L557.863 175.532C559.337 179.586 560.627 183.548 562.102 188.984C563.76 183.087 565.142 178.941 566.432 175.532L580.99 136.742H593.245L568.183 204.095H556.02ZM647.165 204.095H605.333V136.742H647.165V147.614H617.127V164.936H644.032V175.348H617.127V193.222H647.165V204.095ZM675.431 136.742V193.222H703.626V204.095H663.637V136.742H675.431ZM728.697 136.742V193.222H756.892V204.095H716.903V136.742H728.697ZM781.962 136.742V204.095H770.168V136.742H781.962ZM800.117 179.494V136.742H811.911V178.757C811.911 188.431 817.163 193.775 826.746 193.775C836.328 193.775 841.672 188.339 841.672 178.757V136.742H853.466V179.494C853.466 195.249 843.147 205.2 826.746 205.2C810.437 205.2 800.117 195.342 800.117 179.494ZM883.085 204.095H871.659V136.742H883.085L904.83 190.366L926.575 136.742H938.185V204.095H926.759V183.364C926.759 169.819 926.759 165.857 927.404 161.066L910.266 204.095H899.393L882.348 161.158C882.992 165.212 883.085 171.57 883.085 179.955V204.095Z" fill="white"/>
<defs>
<filter id="filter0_d_55_4" x="54" y="34" width="292.419" height="281.942" filterUnits="userSpaceOnUse" color-interpolation-filters="sRGB">
<feFlood flood-opacity="0" result="BackgroundImageFix"/>
<feColorMatrix in="SourceAlpha" type="matrix" values="0 0 0 0 0 0 0 0 0 0 0 0 0 0 0 0 0 0 127 0" result="hardAlpha"/>
<feOffset dy="4"/>
<feGaussianBlur stdDeviation="5"/>
<feComposite in2="hardAlpha" operator="out"/>
<feColorMatrix type="matrix" values="0 0 0 0 0 0 0 0 0 0 0 0 0 0 0 0 0 0 0.3 0"/>
<feBlend mode="normal" in2="BackgroundImageFix" result="effect1_dropShadow_55_4"/>
<feBlend mode="normal" in="SourceGraphic" in2="effect1_dropShadow_55_4" result="shape"/>
</filter>
<linearGradient id="paint0_linear_55_4" x1="115.918" y1="294.625" x2="248.409" y2="167.466" gradientUnits="userSpaceOnUse">
<stop stop-color="#057A5D"/>
<stop offset="1" stop-color="#006C49"/>
</linearGradient>
<linearGradient id="paint1_linear_55_4" x1="120.364" y1="130.123" x2="255.523" y2="248.39" gradientUnits="userSpaceOnUse">
<stop stop-color="#04A15E"/>
<stop offset="1" stop-color="#013B22"/>
</linearGradient>
<linearGradient id="paint2_linear_55_4" x1="120.364" y1="130.123" x2="255.523" y2="248.39" gradientUnits="userSpaceOnUse">
<stop stop-color="#04A15E"/>
<stop offset="1" stop-color="#013B22"/>
</linearGradient>
<linearGradient id="paint3_linear_55_4" x1="151.487" y1="311.519" x2="269.75" y2="189.695" gradientUnits="userSpaceOnUse">
<stop stop-color="#057A5D"/>
<stop offset="1" stop-color="#006C49"/>
</linearGradient>
<linearGradient id="paint4_linear_55_4" x1="115.918" y1="294.625" x2="248.409" y2="167.465" gradientUnits="userSpaceOnUse">
<stop stop-color="#057A5D"/>
<stop offset="1" stop-color="#006C49"/>
</linearGradient>
<linearGradient id="paint5_linear_55_4" x1="120.364" y1="130.123" x2="255.523" y2="248.39" gradientUnits="userSpaceOnUse">
<stop stop-color="#04A15E"/>
<stop offset="1" stop-color="#013B22"/>
</linearGradient>
<linearGradient id="paint6_linear_55_4" x1="120.364" y1="130.123" x2="255.523" y2="248.39" gradientUnits="userSpaceOnUse">
<stop stop-color="#04A15E"/>
<stop offset="1" stop-color="#013B22"/>
</linearGradient>
<linearGradient id="paint7_linear_55_4" x1="151.487" y1="311.519" x2="269.75" y2="189.695" gradientUnits="userSpaceOnUse">
<stop stop-color="#057A5D"/>
<stop offset="1" stop-color="#006C49"/>
</linearGradient>
<linearGradient id="paint8_linear_55_4" x1="115.918" y1="294.625" x2="248.409" y2="167.465" gradientUnits="userSpaceOnUse">
<stop stop-color="#057A5D"/>
<stop offset="1" stop-color="#006C49"/>
</linearGradient>
</defs>
</svg>
