<svg width="156" height="120" viewBox="0 0 156 120" fill="none" xmlns="http://www.w3.org/2000/svg">
<g clip-path="url(#clip0_345_2183)">
<path d="M97.0251 0.146641C96.4885 0.215045 95.5031 0.390941 94.83 0.527749C94.1568 0.664556 93.1227 0.908856 92.5373 1.08475C91.9519 1.25088 90.8885 1.61244 90.1958 1.88605C89.5031 2.15967 88.4007 2.64827 87.7568 2.98052C87.1129 3.30299 86.2153 3.81114 85.7568 4.1043C85.2983 4.39746 84.5373 4.92514 84.0495 5.28671C83.5617 5.6385 82.7519 6.31276 82.2446 6.76228C81.7373 7.22156 81.0349 7.91537 80.6836 8.31602C80.3324 8.71667 79.8641 9.26391 79.6495 9.52775C79.4251 9.80136 79.0056 10.3681 78.7031 10.7981C78.4007 11.2281 78.1568 11.6385 78.1471 11.7069C78.1471 11.7655 78.1763 11.8242 78.2153 11.8242C78.2641 11.8242 78.6641 11.4821 79.1227 11.062C79.5812 10.6515 80.2446 10.0848 80.5861 9.81114C80.9373 9.52775 81.708 8.99029 82.2934 8.60918C82.8788 8.2183 83.9422 7.62221 84.6349 7.28019C85.3275 6.94794 86.3422 6.49843 86.8788 6.30299C87.4153 6.10755 88.4495 5.79485 89.1714 5.60918C89.8934 5.43329 90.9471 5.2183 91.5129 5.14013C92.0788 5.05218 93.0446 4.95446 93.6592 4.92514C94.4788 4.87628 95.1129 4.9056 96.0007 5.02286C96.6739 5.12058 97.6592 5.27693 98.1958 5.38443C98.7324 5.49192 99.6592 5.7069 100.245 5.86325C100.83 6.01961 101.845 6.33231 102.489 6.55706C103.132 6.78182 104.118 7.1727 104.684 7.417C105.249 7.67107 106.098 8.09127 106.586 8.35511C107.074 8.61895 107.971 9.16619 108.586 9.58638C109.201 9.9968 110.215 10.7688 110.82 11.2965C111.435 11.8339 112.303 12.6841 112.752 13.1922C113.201 13.7004 113.835 14.5017 114.176 14.9707C114.508 15.4398 115.035 16.2802 115.337 16.8274C115.649 17.3844 116.098 18.3128 116.332 18.9089C116.576 19.5049 116.879 20.3844 117.025 20.8633C117.162 21.3421 117.357 22.1629 117.464 22.6711C117.562 23.1792 117.698 24.0294 117.747 24.5571C117.806 25.075 117.854 26.1988 117.854 27.0489C117.854 27.8893 117.786 29.1304 117.708 29.8046C117.63 30.4789 117.474 31.5049 117.357 32.101C117.249 32.6971 117.006 33.7036 116.81 34.3486C116.625 34.9935 116.254 36.0978 115.971 36.7916C115.698 37.4854 115.123 38.7655 114.684 39.6255C114.245 40.4854 113.532 41.7655 113.103 42.4593C112.664 43.1532 111.903 44.3063 111.415 45.0001C110.918 45.6939 110.089 46.8176 109.562 47.4919C109.045 48.1662 108.098 49.329 107.474 50.0815C106.84 50.8339 105.64 52.2216 104.801 53.1597C103.962 54.0978 101.669 56.4821 99.708 58.4463C97.7471 60.4105 95.5129 62.6287 94.7324 63.3812C93.9519 64.1238 92.3227 65.6189 91.1227 66.6939C89.9129 67.7688 88.0007 69.4398 86.8592 70.4072C85.7178 71.3746 84.3812 72.4984 83.8836 72.9089C83.3861 73.3095 81.9617 74.4626 80.7324 75.4593C79.5031 76.4463 77.5031 78.0196 76.2934 78.9479C75.0836 79.8763 74.0495 80.6776 74.0007 80.7167C73.9422 80.7655 73.9422 80.8144 74.0202 80.8535C74.0885 80.8828 74.9958 80.3747 76.0202 79.7297C77.0544 79.075 78.7324 77.9805 79.7568 77.2867C80.7812 76.5929 82.3031 75.5375 83.1519 74.9317C84.0007 74.3258 85.8153 72.987 87.2007 71.961C88.5763 70.9251 90.6641 69.3421 91.8349 68.4431C92.9958 67.5343 94.1568 66.6352 94.4105 66.4496C94.6641 66.2639 95.7471 65.3844 96.8202 64.5049C97.9032 63.6255 99.6592 62.1401 100.732 61.2216C101.806 60.303 103.367 58.9251 104.196 58.1727C105.025 57.4203 106.459 56.0913 107.367 55.2216C108.274 54.3421 109.659 52.9642 110.43 52.1532C111.21 51.3323 112.235 50.2085 112.723 49.6418C113.201 49.075 114.089 48.0001 114.684 47.2476C115.279 46.4952 116.215 45.2639 116.752 44.5115C117.289 43.759 117.942 42.8111 118.196 42.4105C118.459 42.0098 118.898 41.3063 119.171 40.847C119.445 40.3877 119.962 39.4887 120.313 38.8437C120.664 38.1988 121.259 36.987 121.64 36.1564C122.01 35.3258 122.528 34.0457 122.771 33.3225C123.025 32.5994 123.357 31.5245 123.513 30.9284C123.679 30.3323 123.845 29.6092 123.903 29.316C123.962 29.0229 124.069 28.4072 124.147 27.9479C124.225 27.4887 124.342 26.4137 124.401 25.5538C124.498 24.3323 124.489 23.6483 124.401 22.4268C124.332 21.5668 124.196 20.3844 124.089 19.7883C123.981 19.1922 123.786 18.2932 123.649 17.7851C123.513 17.2769 123.269 16.4561 123.103 15.9773C122.937 15.4984 122.567 14.5506 122.284 13.8763C121.991 13.202 121.484 12.1662 121.152 11.5799C120.83 10.9838 120.303 10.1336 119.991 9.67433C119.679 9.21504 119.084 8.42351 118.654 7.91537C118.235 7.40723 117.493 6.6157 117.015 6.16618C116.537 5.71667 115.708 5.02286 115.171 4.62221C114.635 4.22156 113.776 3.64501 113.269 3.34208C112.762 3.03915 111.854 2.57009 111.269 2.28671C110.684 2.00332 109.669 1.5929 109.025 1.37791C108.381 1.15316 107.328 0.840452 106.684 0.6841C106.04 0.527749 105.054 0.322537 104.489 0.234589C103.747 0.117325 102.723 0.0586933 100.732 0.0391493C98.8592 0.0293773 97.6983 0.0586933 97.0251 0.146641Z" fill="#0542A3"/>
<path fill-rule="evenodd" clip-rule="evenodd" d="M65.8537 17.3064C66.4195 17.2966 67.2976 17.365 67.8049 17.4529C68.3122 17.5409 69.0634 17.7168 69.4634 17.834C69.8634 17.9611 71.0537 18.3715 72.0976 18.7624C73.1415 19.1533 74.5073 19.6028 75.1219 19.7591C76.0098 19.9936 76.5366 20.0621 77.6098 20.1011C78.6732 20.15 79.1902 20.1207 79.9512 19.9839C80.4878 19.8959 81.4341 19.6614 82.0488 19.4757C82.6634 19.2901 83.9415 18.8796 84.878 18.5669C85.8146 18.2445 87.0439 17.8731 87.6098 17.7363C88.1756 17.5995 89.0537 17.4529 89.561 17.4041C90.0683 17.365 90.8195 17.3552 91.2195 17.3943C91.6195 17.4432 92.3415 17.5702 92.8293 17.6777C93.3561 17.8047 94.1366 18.0979 94.7805 18.4106C95.4927 18.7624 96.0976 19.1533 96.5854 19.5637C96.9854 19.9057 97.5512 20.492 97.8341 20.8634C98.1073 21.2445 98.5366 21.9187 98.7707 22.378C99.0146 22.8373 99.3171 23.5604 99.4634 23.9904C99.6097 24.4204 99.8146 25.1923 99.9317 25.7005C100.117 26.5116 100.137 26.9513 100.146 29.0718C100.146 31.1826 100.117 31.6712 99.9317 32.6875C99.8146 33.3324 99.561 34.4073 99.3756 35.0816C99.2 35.7559 98.878 36.7428 98.6829 37.2803C98.478 37.8178 97.7854 39.4399 97.1415 40.8959C96.5073 42.352 95.7854 44.1109 95.561 44.8047C95.3268 45.4985 95.0634 46.4953 94.9854 47.0034C94.8976 47.5116 94.7902 48.4594 94.7317 49.1044C94.6829 49.7493 94.6341 52.4562 94.6341 55.1142C94.6341 57.7721 94.5951 60.7819 94.4488 63.6647L93.8341 64.2314C93.4927 64.5539 92.2537 65.6679 91.0732 66.7331C89.8927 67.7884 87.9902 69.4594 86.8488 70.4366C85.7171 71.4138 84.7219 72.2151 84.6537 72.2151C84.5658 72.2151 84.5561 71.8536 84.6146 70.5344C84.6537 69.606 84.761 67.7689 84.8488 66.4497C84.9268 65.1305 84.9951 63.1956 84.9951 62.15C84.9951 60.9969 84.9171 59.4529 84.8 58.2412C84.6927 57.137 84.5268 55.9546 84.439 55.6028C84.3512 55.251 84.1561 54.7037 84 54.3813C83.8537 54.0588 83.5122 53.5116 83.2488 53.1695C82.9951 52.8177 82.5366 52.3389 82.2439 52.1044C81.9512 51.8699 81.4244 51.5376 81.0732 51.3617C80.7219 51.1761 80.1366 50.9318 79.7561 50.8145C79.3171 50.6777 78.7024 50.58 78.0488 50.5506C77.2 50.5018 76.878 50.5311 76.1951 50.707C75.7366 50.8243 75.0341 51.0783 74.6439 51.2835C74.1756 51.5083 73.6488 51.8992 73.1902 52.3292C72.7902 52.7103 72.322 53.2086 72.1659 53.4529C72 53.6972 71.7463 54.137 71.6 54.4301C71.4634 54.7233 71.2683 55.2119 71.1902 55.505C71.1024 55.7982 70.9659 56.7754 70.878 57.6842C70.8 58.5832 70.7317 60.0783 70.7317 61.0067C70.7317 61.9252 70.8 63.5669 70.878 64.6419C70.9561 65.7168 71.0439 66.7526 71.0732 66.9383C71.1024 67.1239 71.1902 68.1402 71.2683 69.1858C71.3463 70.2314 71.4146 71.6679 71.4146 72.3617C71.4146 73.0555 71.3463 74.1793 71.2683 74.8536C71.1902 75.5279 71.0439 76.3585 70.9366 76.7103C70.8293 77.0621 70.6049 77.5311 70.4488 77.7656C70.2829 77.9904 69.961 78.3129 69.7366 78.479C69.5024 78.6353 69.1024 78.8406 68.8293 78.9187C68.5658 78.9969 68.1854 79.0555 68 79.0555C67.8146 79.0555 67.4439 78.9871 67.1707 78.8894C66.8098 78.7722 66.5073 78.5572 66.0488 78.0881C65.6195 77.6581 65.278 77.1891 65.0049 76.6614C64.7902 76.2314 64.361 75.2445 64.0683 74.4627C63.7659 73.6809 63.3073 72.3226 63.0341 71.4334C62.7707 70.5441 62.4 69.0979 62.2049 68.2086C62.0195 67.3194 61.7951 66.137 61.7171 65.5702C61.6293 65.0034 61.5219 64.0555 61.4634 63.4692C61.4146 62.8829 61.3658 61.5637 61.3756 60.5376C61.3756 59.5116 61.4146 57.7135 61.4537 56.5311C61.4927 55.3487 61.4927 53.4138 61.4537 52.2314C61.4049 51.049 61.3073 49.5539 61.2195 48.909C61.1317 48.264 60.9756 47.2966 60.8585 46.7591C60.7512 46.2217 60.4878 45.2347 60.2732 44.5604C60.0585 43.8862 59.3561 42.0002 58.7122 40.3585C58.0683 38.7168 57.3854 36.9383 57.2 36.4008C57.0244 35.8634 56.7415 34.9155 56.5854 34.2998C56.4293 33.6842 56.1951 32.6288 56.078 31.9546C55.8829 30.8992 55.8537 30.4008 55.8537 28.2901C55.8537 25.9643 55.8732 25.7982 56.1268 24.7233C56.2732 24.1077 56.5463 23.2477 56.7317 22.8178C56.9268 22.3878 57.2195 21.7917 57.3951 21.5083C57.561 21.2151 58.039 20.6191 58.439 20.1891C58.839 19.7689 59.4732 19.2119 59.8537 18.9676C60.2341 18.7135 60.8683 18.3715 61.2683 18.2054C61.6683 18.0295 62.3707 17.8047 62.8293 17.6972C63.2878 17.58 63.9219 17.4529 64.2439 17.4041C64.5658 17.3552 65.2878 17.3161 65.8537 17.3064ZM94.0585 66.7428C94.0878 66.7428 94.0976 66.8601 94.078 67.0164C94.0683 67.163 93.961 67.8275 93.8439 68.5018C93.7366 69.1761 93.561 70.0946 93.4537 70.5539C93.3463 71.0132 93.1512 71.7754 93.0049 72.264C92.8683 72.7526 92.5561 73.6516 92.3219 74.2673C92.0878 74.8829 91.6683 75.8112 91.4049 76.3194C91.1415 76.8275 90.7219 77.5018 90.4878 77.8145C90.2439 78.1174 89.8439 78.5279 89.5805 78.7135C89.3268 78.8992 88.9268 79.1142 88.6829 79.2021C88.439 79.2803 88 79.3487 87.7073 79.3487C87.3854 79.3487 87.0049 79.2705 86.7512 79.1533C86.5268 79.0458 86.1561 78.7722 85.922 78.5474C85.6878 78.3129 85.3854 77.8829 85.239 77.5897C85.0927 77.2966 84.9073 76.7005 84.839 76.2705C84.761 75.8406 84.6829 75.1174 84.6341 73.8471L87.2195 71.9318C88.6439 70.8764 90.7512 69.2738 91.9024 68.3748C93.0537 67.4757 94.0293 66.7428 94.0585 66.7428ZM17.8537 103.192C18.3317 103.192 18.8 103.261 19.2195 103.388C19.5707 103.495 20.0585 103.74 20.322 103.925C20.5756 104.111 20.9171 104.472 21.0927 104.736C21.2585 104.99 21.4634 105.391 21.5317 105.635C21.6 105.88 21.6585 106.173 21.6585 106.3C21.6585 106.505 21.6293 106.515 19.4634 106.525L19.0244 106.095C18.6829 105.762 18.4878 105.645 18.1463 105.596C17.8049 105.538 17.6293 105.567 17.3659 105.714C17.1805 105.811 16.9268 106.065 16.8098 106.28C16.6537 106.544 16.5854 106.828 16.5854 107.199C16.5756 107.648 16.6341 107.814 16.8976 108.225C17.1317 108.577 17.6098 109.007 18.5854 109.74C19.3366 110.306 20.2146 111.029 20.5366 111.352C20.8683 111.684 21.278 112.231 21.4829 112.622C21.678 112.994 21.9122 113.59 21.9902 113.942C22.078 114.293 22.1463 114.841 22.1463 115.163C22.1463 115.486 22.078 116.033 21.9902 116.385C21.9122 116.736 21.678 117.323 21.4829 117.704C21.2878 118.075 20.9171 118.593 20.6537 118.847C20.3707 119.14 19.922 119.443 19.4634 119.658C18.7805 119.981 18.6634 120 17.7756 120C16.878 120 16.7902 119.981 16.0488 119.619C15.5902 119.394 15.122 119.082 14.9268 118.867C14.7317 118.652 14.4585 118.29 14.322 118.046C14.1756 117.801 13.9902 117.342 13.9024 117.02C13.8244 116.697 13.7561 116.316 13.7561 115.896H16.1463L16.2634 116.336C16.3317 116.58 16.5366 116.932 16.7024 117.127C16.878 117.313 17.1805 117.518 17.3659 117.577C17.5512 117.635 17.8634 117.665 18.0488 117.635C18.2341 117.616 18.5561 117.499 18.7512 117.381C19.0244 117.225 19.1902 117.01 19.3854 116.609C19.6195 116.101 19.639 115.964 19.5902 115.261C19.5512 114.684 19.4732 114.342 19.278 113.971C19.1415 113.687 18.8293 113.267 18.6049 113.043C18.3707 112.808 17.6585 112.251 17.0146 111.792C16.3805 111.342 15.639 110.766 15.3854 110.521C15.122 110.277 14.7902 109.886 14.6341 109.642C14.4878 109.398 14.2927 108.987 14.2146 108.714C14.1366 108.45 14.039 107.99 14.0098 107.717C13.9805 107.433 14 106.906 14.0585 106.544C14.1073 106.173 14.2537 105.665 14.3707 105.391C14.4976 105.127 14.722 104.727 14.878 104.521C15.0439 104.316 15.3659 104.003 15.6098 103.847C15.8537 103.681 16.2927 103.466 16.5854 103.378C16.878 103.28 17.4439 103.202 17.8537 103.192ZM65.2683 103.231C66.1658 103.251 66.6146 103.31 66.9756 103.446C67.239 103.554 67.6 103.74 67.7561 103.867C67.9122 103.984 68.1951 104.297 68.3707 104.541C68.5463 104.795 68.7805 105.284 68.9073 105.635C69.1219 106.261 69.1219 106.339 69.1219 111.645C69.1219 116.58 69.1122 117.069 68.9463 117.557C68.8488 117.85 68.6439 118.271 68.4976 118.486C68.3512 118.7 68.0585 119.013 67.8439 119.17C67.639 119.336 67.161 119.59 66.7805 119.736C66.1366 119.99 66.0195 120.01 64.8293 119.981C63.7659 119.951 63.4634 119.902 62.9756 119.707C62.6537 119.58 62.2341 119.336 62.0488 119.17C61.8634 118.994 61.5707 118.573 61.3951 118.231C61.2293 117.889 61.0439 117.362 60.9756 117.069C60.8976 116.687 60.8683 114.997 60.9268 105.831H58.2439V119.805H55.8049V105.831H53.0732V103.388H60.9756L60.9854 105.782L61.1805 105.293C61.2878 105.029 61.5219 104.629 61.6976 104.414C61.8732 104.199 62.2341 103.906 62.4976 103.759C62.761 103.613 63.2195 103.427 63.5122 103.349C63.9122 103.231 64.3707 103.202 65.2683 103.231ZM63.6 106.231L63.3659 106.564L63.3073 116.531C63.6585 117.059 63.9122 117.293 64.0976 117.381C64.3024 117.489 64.6634 117.557 65.0244 117.557C65.4732 117.557 65.6878 117.508 65.9415 117.342C66.1268 117.215 66.3707 116.99 66.4781 116.844C66.6829 116.57 66.6829 116.463 66.7122 111.714L66.7317 106.857C66.3707 106.153 66.1658 105.929 65.9512 105.811C65.7268 105.694 65.4049 105.635 65.0244 105.635C64.7024 105.645 64.3024 105.704 64.1366 105.772C63.961 105.85 63.7171 106.056 63.6 106.231ZM87.7073 103.231C88.6634 103.261 89.0439 103.31 89.4634 103.476C89.7561 103.593 90.1366 103.808 90.3122 103.955C90.4878 104.101 90.7805 104.482 90.9756 104.805C91.161 105.127 91.3854 105.684 91.4634 106.056C91.5805 106.593 91.6098 107.609 91.6098 111.626C91.6098 115.368 91.5707 116.678 91.4732 117.166C91.4049 117.518 91.2683 117.948 91.1805 118.124C91.0927 118.29 90.8585 118.622 90.6634 118.837C90.4585 119.062 90.1366 119.316 89.9512 119.414C89.7659 119.512 89.3659 119.678 89.0732 119.795C88.6439 119.961 88.3122 120 87.4146 120C86.5073 120 86.1658 119.961 85.6585 119.785C85.3073 119.668 84.8488 119.433 84.6439 119.267C84.4293 119.111 84.1171 118.71 83.9415 118.388C83.7659 118.065 83.5512 117.538 83.4634 117.215C83.3366 116.717 83.3171 115.828 83.3171 111.577C83.3171 108.202 83.3528 106.345 83.4244 106.007C83.4829 105.723 83.639 105.293 83.7561 105.049C83.8732 104.805 84.0878 104.482 84.2146 104.316C84.3512 104.15 84.6732 103.906 84.9366 103.759C85.2 103.613 85.6585 103.427 85.9512 103.349C86.3512 103.231 86.8098 103.202 87.7073 103.231ZM86.0195 106.261C85.8049 106.564 85.8049 106.603 85.7756 111.499C85.7561 116.052 85.7659 116.463 85.922 116.775C86.0195 116.971 86.2634 117.205 86.4878 117.332C86.7707 117.499 87.0341 117.557 87.4634 117.557C87.8927 117.547 88.1463 117.489 88.4195 117.332C88.6439 117.205 88.8683 116.961 88.9756 116.727C89.161 116.355 89.1707 116.082 89.1707 111.596C89.1707 106.867 89.1707 106.857 88.9561 106.417C88.8098 106.134 88.6146 105.919 88.3902 105.811C88.1756 105.704 87.8244 105.635 87.4634 105.635C87.1219 105.635 86.7415 105.704 86.5561 105.801C86.3805 105.889 86.1366 106.095 86.0195 106.261ZM100.293 103.222C101.073 103.251 101.317 103.3 101.844 103.544C102.254 103.73 102.624 104.003 102.937 104.345C103.2 104.619 103.502 105.039 103.6 105.274C103.707 105.499 103.824 105.87 103.951 106.515H101.61L101.337 106.173C101.171 105.958 100.907 105.772 100.605 105.665C100.234 105.538 100.078 105.528 99.7756 105.616C99.5805 105.684 99.3073 105.86 99.1707 106.026C99.0341 106.192 98.8878 106.486 98.8293 106.691C98.7805 106.886 98.7317 107.15 98.7317 107.277C98.7317 107.394 98.8 107.658 98.8878 107.863C98.9659 108.059 99.1707 108.372 99.3463 108.557C99.5219 108.733 100.166 109.261 100.78 109.73C101.395 110.189 102.205 110.854 102.566 111.205C102.937 111.557 103.366 112.036 103.522 112.28C103.678 112.525 103.922 113.052 104.059 113.453C104.273 114.059 104.322 114.362 104.322 115.163C104.322 115.984 104.283 116.257 104.068 116.873C103.922 117.274 103.678 117.801 103.522 118.046C103.366 118.29 103.005 118.7 102.712 118.974C102.429 119.238 101.922 119.58 101.58 119.727C101.063 119.961 100.849 120 100.068 120C99.3268 120 99.0537 119.951 98.4878 119.736C98.0195 119.551 97.639 119.306 97.2683 118.964C96.878 118.603 96.6341 118.261 96.4 117.743C96.2049 117.323 96.039 116.785 95.9512 115.896H98.439V116.17C98.439 116.316 98.5561 116.619 98.7024 116.854C98.8683 117.098 99.1317 117.352 99.3659 117.459C99.5805 117.567 99.8634 117.655 100 117.655C100.137 117.655 100.4 117.606 100.585 117.557C100.771 117.499 101.073 117.313 101.249 117.137C101.454 116.942 101.629 116.629 101.727 116.287C101.831 115.929 101.863 115.57 101.824 115.212C101.785 114.919 101.688 114.459 101.59 114.186C101.493 113.902 101.229 113.492 100.966 113.209C100.722 112.945 99.9317 112.3 99.2195 111.792C98.4976 111.284 97.7073 110.658 97.4439 110.404C97.1902 110.14 96.8683 109.72 96.7317 109.446C96.5951 109.183 96.4195 108.704 96.3415 108.401C96.2634 108.088 96.1951 107.619 96.1951 107.345C96.1951 107.082 96.2341 106.613 96.2927 106.319C96.3512 106.026 96.4976 105.567 96.6146 105.293C96.7415 105.029 97.0146 104.609 97.2293 104.375C97.4341 104.14 97.8049 103.837 98.0488 103.7C98.2927 103.554 98.6829 103.388 98.9268 103.319C99.1805 103.251 99.7561 103.202 100.293 103.222ZM109.951 103.231C110.722 103.261 111.337 103.329 111.61 103.427C111.854 103.505 112.263 103.769 112.527 103.994C112.839 104.277 113.102 104.639 113.327 105.098C113.512 105.489 113.698 106.075 113.756 106.466C113.824 106.906 113.854 108.909 113.824 112.085C113.795 116.326 113.776 117.088 113.639 117.508C113.551 117.782 113.327 118.222 113.151 118.486C112.976 118.759 112.634 119.111 112.39 119.277C112.146 119.433 111.639 119.668 111.268 119.795C110.663 120 110.439 120.02 109.415 119.981C108.468 119.951 108.127 119.902 107.659 119.707C107.337 119.58 106.907 119.316 106.702 119.13C106.498 118.935 106.195 118.515 106.039 118.192C105.883 117.87 105.707 117.391 105.659 117.117C105.59 116.814 105.571 114.616 105.58 111.254C105.61 105.977 105.61 105.87 105.824 105.342C105.941 105.049 106.215 104.609 106.42 104.365C106.634 104.121 107.015 103.818 107.278 103.691C107.541 103.554 107.971 103.388 108.244 103.319C108.556 103.241 109.161 103.212 109.951 103.231ZM108.156 106.417C107.961 106.749 107.951 106.925 107.922 111.205C107.902 114.166 107.922 115.847 108 116.238C108.059 116.59 108.185 116.912 108.322 117.059C108.439 117.186 108.683 117.352 108.849 117.42C109.024 117.499 109.415 117.557 109.707 117.557C110 117.557 110.361 117.499 110.507 117.42C110.663 117.342 110.878 117.176 110.995 117.049C111.102 116.932 111.249 116.648 111.317 116.433C111.395 116.16 111.415 114.684 111.395 111.352C111.366 106.759 111.366 106.652 111.161 106.319C111.044 106.134 110.79 105.899 110.595 105.811C110.371 105.694 110.02 105.635 109.629 105.635C109.151 105.635 108.937 105.684 108.683 105.86C108.498 105.977 108.263 106.231 108.156 106.417ZM142.263 103.202C142.8 103.192 143.2 103.251 143.629 103.398C143.971 103.515 144.429 103.73 144.654 103.886C144.888 104.043 145.18 104.316 145.307 104.492C145.434 104.658 145.629 104.99 145.746 105.225C145.854 105.45 145.98 105.831 146.098 106.515L143.854 106.525L143.415 106.095C143.112 105.792 142.859 105.635 142.585 105.586C142.293 105.538 142.098 105.557 141.805 105.694C141.58 105.801 141.337 106.016 141.229 106.222C141.122 106.407 141.005 106.74 140.966 106.955C140.937 107.17 140.946 107.502 140.995 107.687C141.044 107.873 141.22 108.205 141.395 108.411C141.571 108.626 142.322 109.261 143.073 109.828C143.824 110.394 144.683 111.098 144.976 111.401C145.268 111.694 145.678 112.251 145.873 112.622C146.078 113.003 146.302 113.619 146.38 113.99C146.468 114.362 146.537 114.919 146.537 115.212C146.537 115.505 146.468 116.033 146.38 116.385C146.302 116.736 146.068 117.323 145.873 117.694C145.678 118.065 145.288 118.593 145.024 118.857C144.712 119.179 144.283 119.472 143.824 119.678C143.19 119.971 143.034 120 142.215 120C141.512 120 141.2 119.961 140.78 119.785C140.488 119.668 140.059 119.453 139.824 119.297C139.6 119.15 139.249 118.818 139.044 118.564C138.839 118.3 138.576 117.841 138.459 117.538C138.341 117.225 138.215 116.727 138.098 115.896H139.337C140.517 115.896 140.585 115.906 140.585 116.091C140.585 116.199 140.663 116.453 140.771 116.658C140.868 116.854 141.083 117.137 141.259 117.293C141.424 117.44 141.727 117.586 141.922 117.616C142.127 117.655 142.42 117.645 142.585 117.616C142.751 117.577 143.024 117.459 143.19 117.362C143.405 117.235 143.6 116.971 143.776 116.609C144 116.111 144.029 115.955 143.99 115.31C143.951 114.811 143.863 114.401 143.688 114.039C143.551 113.746 143.249 113.306 143.015 113.072C142.78 112.837 141.99 112.222 141.268 111.694C140.546 111.166 139.746 110.521 139.483 110.238C139.229 109.964 138.917 109.495 138.78 109.202C138.644 108.909 138.488 108.372 138.429 108.01C138.341 107.521 138.341 107.15 138.42 106.613C138.488 106.153 138.654 105.626 138.859 105.196C139.063 104.775 139.366 104.365 139.62 104.13C139.854 103.925 140.224 103.661 140.449 103.554C140.663 103.437 140.995 103.319 141.18 103.28C141.366 103.241 141.854 103.212 142.263 103.202ZM152.098 103.231C152.907 103.251 153.463 103.319 153.756 103.427C154 103.515 154.361 103.71 154.566 103.857C154.78 104.003 155.083 104.345 155.249 104.609C155.424 104.883 155.659 105.381 155.776 105.733C156 106.358 156 106.417 156 111.645C156 116.492 155.98 116.971 155.815 117.459C155.717 117.753 155.59 118.095 155.532 118.222C155.463 118.339 155.249 118.622 155.044 118.837C154.849 119.062 154.527 119.316 154.341 119.414C154.156 119.512 153.756 119.678 153.463 119.795C153.034 119.961 152.702 120 151.805 120C150.898 120 150.556 119.961 150.049 119.785C149.698 119.668 149.239 119.433 149.034 119.267C148.82 119.111 148.507 118.71 148.332 118.388C148.156 118.065 147.941 117.538 147.854 117.215C147.727 116.707 147.707 115.876 147.727 111.303C147.756 106.476 147.776 105.929 147.932 105.489C148.029 105.225 148.273 104.785 148.468 104.521C148.673 104.257 149.044 103.925 149.317 103.769C149.58 103.622 150.049 103.427 150.341 103.339C150.741 103.231 151.2 103.202 152.098 103.231ZM150.4 106.378L150.146 106.759C150.146 116.003 150.166 116.463 150.322 116.775C150.41 116.971 150.654 117.205 150.878 117.332C151.161 117.499 151.424 117.557 151.854 117.557C152.283 117.547 152.537 117.489 152.81 117.332C153.034 117.205 153.259 116.961 153.366 116.727C153.551 116.355 153.561 116.082 153.561 111.547C153.561 106.759 153.561 106.759 153.337 106.368C153.21 106.143 152.976 105.899 152.78 105.811C152.566 105.704 152.215 105.635 151.854 105.635C151.454 105.635 151.171 105.694 150.966 105.821C150.79 105.919 150.546 106.173 150.4 106.378ZM0 103.388H2.43902V119.805H0V103.388ZM43.8049 103.388H46.2439V116.238L46.4683 116.668C46.5854 116.902 46.8098 117.196 46.9756 117.303C47.1902 117.45 47.4537 117.518 47.9512 117.538C48.4683 117.557 48.7122 117.528 48.9659 117.391C49.1415 117.293 49.3756 117.059 49.4732 116.873C49.6488 116.551 49.6585 116.228 49.6585 103.388H52.0878L52.0488 117.313L51.8146 117.899C51.6585 118.28 51.4049 118.661 51.0829 118.984C50.761 119.306 50.3805 119.56 50 119.717C49.4732 119.932 49.2683 119.951 48 119.951C46.722 119.951 46.5268 119.932 46 119.717C45.678 119.58 45.2488 119.316 45.0439 119.13C44.8293 118.935 44.5171 118.466 44.3317 118.095C44.1463 117.723 43.9512 117.147 43.9024 116.824C43.8439 116.482 43.8049 113.521 43.8049 109.818V103.388Z" fill="white"/>
<path d="M58.6341 13.7003C58.1267 13.7491 57.1706 13.8957 56.5072 14.0227C55.8536 14.1595 54.8487 14.4234 54.2731 14.6091C53.6877 14.7947 52.7609 15.1465 52.195 15.4006C51.6292 15.6449 50.8194 16.0553 50.3901 16.2898C49.9609 16.5341 49.2584 16.9837 48.8292 17.2768C48.3999 17.57 47.7462 18.0683 47.3658 18.381C46.9853 18.684 46.234 19.3876 45.6877 19.9446C45.1414 20.5016 44.4682 21.2442 44.1853 21.596C43.9121 21.9478 43.4341 22.6025 43.1219 23.0618C42.8194 23.5211 42.3706 24.2638 42.1267 24.7231C41.8828 25.1823 41.5121 25.9739 41.317 26.482C41.1121 26.9902 40.8194 27.8501 40.6731 28.3876C40.517 28.925 40.3414 29.6091 40.2926 29.9022C40.2341 30.1954 40.1267 30.9674 40.0487 31.6123C39.9706 32.2573 39.9023 33.5667 39.9023 34.5244C39.9023 35.5797 39.9609 36.684 40.0584 37.3582C40.1365 37.9543 40.3511 39.0293 40.5267 39.7231C40.7121 40.4169 41.0536 41.5016 41.2877 42.1172C41.5316 42.7328 41.9316 43.6514 42.1853 44.1498C42.4292 44.6384 42.9072 45.4983 43.2487 46.0553C43.5804 46.6025 44.1658 47.4723 44.5462 47.9804C44.917 48.4885 45.6292 49.368 46.117 49.9348C46.6048 50.5016 47.5706 51.5081 48.2536 52.1824C48.9462 52.8566 50.0194 53.8338 50.6341 54.3517C51.2487 54.8599 52.3023 55.6905 52.9755 56.1889C53.6487 56.6872 54.7023 57.4397 55.317 57.8501C55.9316 58.2605 57.2097 59.0618 58.1462 59.6286C59.0828 60.1954 60.195 60.8403 60.6145 61.0651L61.3658 61.4657L61.356 59.0716C59.5902 57.7817 58.5462 56.9902 57.9023 56.4723C57.2584 55.9543 56.2731 55.1237 55.7072 54.6253C55.1414 54.127 54.2048 53.2475 53.6292 52.6807C53.0438 52.1139 52.1462 51.1563 51.6194 50.57C51.0926 49.9837 50.3219 49.0553 49.9023 48.5179C49.4828 47.9804 48.8877 47.1693 48.5853 46.71C48.2828 46.2508 47.7462 45.4006 47.4145 44.8045C47.0731 44.2182 46.5853 43.2703 46.3316 42.7035C46.078 42.1367 45.717 41.1986 45.5316 40.6025C45.3462 40.0162 45.1121 39.2247 45.0341 38.8436C44.9462 38.4625 44.8097 37.7003 44.7316 37.1335C44.6536 36.5667 44.5853 35.5993 44.5853 34.9837C44.5853 34.368 44.6536 33.381 44.7316 32.785C44.8097 32.1986 44.9853 31.2898 45.1121 30.7817C45.2487 30.2736 45.4731 29.5211 45.6097 29.1205C45.756 28.7198 46.1658 27.7719 46.5365 27.0195C46.8975 26.267 47.4145 25.3192 47.6682 24.9185C47.9219 24.5179 48.3609 23.8827 48.6341 23.5016C48.917 23.1302 49.4243 22.4951 49.7658 22.0944C50.1072 21.7035 50.7804 21.0293 51.2682 20.5993C51.756 20.1791 52.517 19.5732 52.9755 19.2605C53.4341 18.9478 54.156 18.4983 54.5853 18.254C55.0145 18.0195 55.7853 17.6481 56.2926 17.4234C56.7999 17.2084 57.678 16.8957 58.2438 16.7296C58.8097 16.5732 59.4926 16.3876 59.756 16.3289C60.0292 16.2801 60.5755 16.1726 60.9755 16.1042C61.434 16.026 62.4975 15.9869 63.8048 15.9869C65.5023 15.9967 66.1267 16.0358 67.0731 16.2117C67.717 16.3289 68.7706 16.583 69.4145 16.7687C70.0584 16.9641 70.956 17.267 71.4145 17.4625C71.8731 17.6481 72.6926 18.039 73.2487 18.3322C73.795 18.6253 74.2633 18.8208 74.2926 18.7622C74.3219 18.7133 74.2243 18.5667 74.0779 18.4495C73.9414 18.3224 73.4731 17.9706 73.034 17.6481C72.595 17.3354 71.8243 16.8371 71.317 16.5341C70.8097 16.2312 69.9023 15.7719 69.317 15.5081C68.7316 15.2345 67.7267 14.8534 67.1023 14.6481C66.4682 14.4332 65.4145 14.1595 64.7609 14.0325C64.0975 13.8957 63.0536 13.7394 62.4389 13.6905C61.8243 13.6319 60.9267 13.5928 60.4389 13.5928C59.9511 13.6025 59.1414 13.6514 58.6341 13.7003ZM70.9267 65.5016C70.9267 65.7263 70.9658 65.9609 71.0048 66.0195C71.0438 66.0683 71.7755 66.4104 72.634 66.7719C73.4926 67.1237 75.3462 67.8566 76.7609 68.3941C78.1658 68.9413 79.395 69.3811 79.4926 69.3811C79.6389 69.3811 79.6389 69.3713 79.5121 69.2442C79.434 69.1661 78.6828 68.8045 77.8536 68.4429C77.0243 68.0716 75.1511 67.1726 73.6975 66.4299C72.2438 65.6872 71.0243 65.0814 70.995 65.0814C70.956 65.0814 70.9267 65.267 70.9267 65.4918V65.5016Z" fill="#C7EAFF"/>
<path fill-rule="evenodd" clip-rule="evenodd" d="M6.37041 103.437L7.86309 107.492C8.69236 109.72 9.42407 111.733 9.51187 111.968C9.58992 112.192 9.70699 112.378 9.75577 112.378C9.82407 112.378 9.85333 110.814 9.85333 103.388H12.1948V119.805L9.80455 119.756L8.42894 115.994C7.66797 113.922 6.93626 111.909 6.78992 111.528C6.65333 111.137 6.49724 110.814 6.4387 110.814C6.37041 110.814 6.34114 112.378 6.34114 119.805L3.9509 119.756L3.92163 111.694C3.91187 107.257 3.92163 103.573 3.9509 103.505C3.98992 103.417 4.29236 103.388 6.37041 103.437ZM22.146 103.388H30.0485V105.831H27.3167V119.805H24.8777V105.831H22.146V103.388ZM31.0241 103.388H33.4631V119.805H31.0241V103.388ZM34.9167 103.388H42.9265L42.8777 105.782L40.0972 105.831V119.805H37.7558V105.831L34.9753 105.782L34.9167 103.388ZM75.8826 103.407C78.0387 103.446 78.2338 103.456 78.7802 103.681C79.1802 103.837 79.5314 104.082 79.9021 104.453C80.2046 104.756 80.5851 105.244 80.7509 105.538C80.9168 105.831 81.1899 106.466 81.346 106.954C81.5119 107.443 81.7167 108.254 81.8143 108.762C81.9314 109.427 81.9802 110.209 81.9802 111.498C81.9802 112.769 81.9314 113.58 81.8143 114.235C81.7265 114.743 81.5411 115.515 81.3948 115.945C81.2582 116.375 81.0436 116.922 80.9265 117.166C80.7997 117.411 80.5168 117.85 80.2924 118.143C80.068 118.437 79.746 118.798 79.5802 118.945C79.4046 119.082 79.0046 119.326 78.0972 119.756H73.5119L73.4826 111.694C73.4728 107.257 73.4826 103.573 73.5119 103.505C73.5607 103.397 74.0192 103.378 75.8826 103.407ZM75.9021 117.362C77.1119 117.362 77.5997 117.303 77.7753 117.235C77.9509 117.156 78.2533 116.922 78.4387 116.717C78.6338 116.511 78.8875 116.072 79.0046 115.749C79.1314 115.427 79.2875 114.743 79.3655 114.235C79.4436 113.707 79.5119 112.573 79.5119 111.596C79.5119 110.619 79.4436 109.485 79.3655 108.958C79.2972 108.45 79.1411 107.785 79.0241 107.492C78.9167 107.199 78.7119 106.788 78.5753 106.583C78.4485 106.388 78.1655 106.134 77.9509 106.026C77.6485 105.88 77.3655 105.831 76.7314 105.831H75.9021V117.362ZM115.327 103.378L120.927 103.437L121.561 103.749C121.902 103.915 122.351 104.218 122.536 104.433C122.731 104.639 123.005 105 123.141 105.244C123.287 105.489 123.473 106.016 123.561 106.417C123.668 106.896 123.697 107.365 123.668 107.756C123.629 108.098 123.492 108.665 123.356 109.026C123.219 109.397 122.956 109.925 122.77 110.199C122.585 110.482 122.263 110.834 122.048 110.981C121.834 111.137 121.658 111.313 121.658 111.371C121.658 111.44 122.156 113.326 122.78 115.554C123.395 117.782 123.902 119.658 123.902 119.707C123.902 119.766 123.424 119.805 121.463 119.805L121.336 119.336C121.258 119.082 120.77 117.303 119.268 111.889H117.756V119.805H115.317L115.327 103.378ZM117.746 109.446C119.639 109.446 119.931 109.407 120.263 109.251C120.566 109.104 120.722 108.958 120.868 108.645C120.995 108.371 121.063 108.02 121.063 107.639C121.063 107.248 120.995 106.925 120.868 106.661C120.761 106.446 120.556 106.182 120.409 106.075C120.185 105.919 119.951 105.88 118.956 105.85L117.766 105.821L117.746 109.446ZM124.975 103.368L127.775 103.407C130.536 103.437 130.585 103.437 131.112 103.681C131.405 103.818 131.844 104.111 132.087 104.336C132.331 104.551 132.644 104.941 132.79 105.205C132.936 105.469 133.122 105.968 133.2 106.319C133.287 106.661 133.356 107.15 133.356 107.394C133.356 107.629 133.287 108.098 133.209 108.42C133.122 108.743 132.917 109.29 132.761 109.642C132.566 110.052 132.263 110.472 131.307 111.401L132.429 115.505C133.044 117.762 133.551 119.648 133.551 119.707C133.551 119.766 133.083 119.805 131.112 119.805L131.024 119.482C130.985 119.306 130.487 117.528 128.917 111.889H127.405V119.805H124.966L124.975 103.368ZM127.405 109.437C129.287 109.437 129.58 109.397 129.912 109.241C130.224 109.095 130.38 108.938 130.517 108.635C130.644 108.371 130.712 108 130.722 107.629C130.722 107.209 130.663 106.925 130.497 106.612C130.361 106.358 130.146 106.114 129.941 106.007C129.658 105.86 129.385 105.821 128.497 105.821H127.405V109.437ZM134.624 103.378H137.063V119.795H134.624V103.378Z" fill="white"/>
<path d="M25.2679 34.6714C25.2679 34.6226 25.2288 34.5933 25.18 34.5933C25.1313 34.5933 24.741 35.0037 24.3215 35.5021C23.8922 35.9907 23.3459 36.6649 23.102 36.9874C22.8581 37.3099 22.3703 38.0135 22.0191 38.5509C21.6679 39.0884 21.1215 40.0363 20.8093 40.6519C20.4874 41.2675 20.0483 42.235 19.8239 42.8017C19.6093 43.3685 19.2776 44.3555 19.0922 45.0004C18.9069 45.6454 18.663 46.7008 18.5459 47.3457C18.4386 47.9907 18.302 49.134 18.2532 49.8864C18.1947 50.7366 18.2044 51.8506 18.2532 52.818C18.3118 53.678 18.4386 54.8897 18.5459 55.5053C18.6532 56.121 18.8874 57.2154 19.0727 57.9288C19.2581 58.6324 19.5996 59.717 19.8142 60.3131C20.0386 60.919 20.4483 61.9255 20.7215 62.5411C21.0044 63.1568 21.5703 64.2806 21.9996 65.033C22.4191 65.7854 23.0922 66.8897 23.4922 67.476C23.8922 68.0623 24.4776 68.9027 24.8093 69.3327C25.1313 69.7626 25.7557 70.5346 26.1849 71.0428C26.6142 71.5509 27.4044 72.4499 27.941 73.0363C28.4874 73.6226 29.4727 74.6096 30.1459 75.2252C30.8191 75.8506 31.8922 76.7985 32.5361 77.3359C33.18 77.8734 34.2825 78.7333 34.9752 79.2512C35.6679 79.7692 36.8386 80.59 37.5605 81.0786C38.2825 81.5574 39.5313 82.3587 40.341 82.8376C41.141 83.3262 42.5947 84.147 43.5605 84.6552C44.5264 85.1731 46.0191 85.9255 46.8776 86.3164C47.7361 86.717 49.18 87.3522 50.0971 87.7333C51.0142 88.1047 52.3313 88.6226 53.0239 88.8767C53.7166 89.1307 54.9459 89.5607 55.7557 89.8245C56.5557 90.0884 57.902 90.4988 58.7313 90.7333C59.5605 90.9679 60.8581 91.3197 61.6093 91.5053C62.3605 91.691 63.7459 92.0037 64.6825 92.1991C65.6191 92.3946 67.1605 92.678 68.0971 92.8343C69.0337 92.9809 70.5264 93.2056 71.4142 93.3131C72.302 93.4304 73.7654 93.5868 74.6825 93.6649C75.5996 93.7431 77.5215 93.8506 78.9752 93.9092C80.8093 93.9776 82.3898 93.9776 84.1947 93.9092C85.6191 93.8604 87.502 93.7431 88.3898 93.6552C89.2776 93.577 90.6337 93.4206 91.4142 93.3131C92.1947 93.2056 93.3557 93.0298 93.9996 92.9223C94.6435 92.8148 95.7654 92.59 96.4874 92.4337C97.2093 92.2773 98.4874 91.9646 99.3166 91.7496C100.146 91.5249 101.6 91.0949 102.536 90.7822C103.473 90.4695 104.79 90.0004 105.463 89.7268C106.136 89.4532 107.278 88.9646 108 88.6324C108.722 88.3099 109.843 87.7431 110.487 87.3913C111.131 87.0395 112.117 86.463 112.682 86.1112C113.248 85.7594 114.126 85.1828 114.634 84.8213C115.141 84.4597 116.068 83.7561 116.682 83.248C117.297 82.7398 118.351 81.7822 119.024 81.1079C119.697 80.4337 120.614 79.4271 121.063 78.8604C121.522 78.2936 122.234 77.3066 122.663 76.6617C123.082 76.0167 123.775 74.7854 124.195 73.9255C124.624 73.0656 125.161 71.7659 125.404 71.0428C125.639 70.3196 125.951 69.1959 126.078 68.5509C126.214 67.906 126.37 66.9581 126.429 66.4499C126.478 65.9418 126.556 65.0819 126.585 64.5444C126.624 64.0069 126.595 62.9125 126.536 62.1014C126.478 61.3001 126.341 60.1275 126.234 59.5118C126.126 58.8962 125.892 57.8115 125.707 57.1177C125.531 56.4239 125.18 55.3196 124.946 54.6747C124.712 54.0297 124.331 53.1112 124.117 52.6226C123.892 52.134 123.492 51.3131 123.229 50.7952C122.956 50.2675 122.682 49.818 122.634 49.7887C122.585 49.7594 122.536 49.7692 122.536 49.8082C122.536 49.8571 122.692 50.375 122.887 50.9613C123.073 51.5477 123.356 52.6714 123.512 53.4532C123.668 54.235 123.843 55.3978 123.912 56.0428C123.98 56.7659 124.009 57.8897 123.97 58.9744C123.941 60.0591 123.843 61.1633 123.717 61.8571C123.609 62.4727 123.404 63.4206 123.268 63.9581C123.122 64.4955 122.858 65.3555 122.673 65.8636C122.478 66.3718 122.048 67.3685 121.707 68.0623C121.365 68.7561 120.692 69.9288 120.214 70.6519C119.736 71.375 118.985 72.3913 118.556 72.8995C118.126 73.4076 117.209 74.3848 116.526 75.0591C115.834 75.7333 114.829 76.6324 114.292 77.0623C113.756 77.4923 112.897 78.1275 112.39 78.489C111.882 78.8408 110.907 79.4662 110.214 79.8767C109.531 80.2871 108.351 80.932 107.58 81.3131C106.819 81.6942 105.512 82.3001 104.682 82.6421C103.853 82.9939 102.341 83.5509 101.317 83.8929C100.292 84.235 98.7605 84.6845 97.902 84.8995C97.0435 85.1242 95.7069 85.4271 94.9264 85.5933C94.1459 85.7496 92.9361 85.9744 92.2435 86.0819C91.5508 86.1894 90.1849 86.3653 89.2191 86.4727C88.2532 86.5802 86.741 86.717 85.8532 86.7757C84.9654 86.8245 83.063 86.8734 81.6093 86.8734C80.1557 86.8734 78.2727 86.8245 77.4142 86.7757C76.5557 86.7268 75.1313 86.6096 74.2435 86.5314C73.3557 86.4434 71.7069 86.248 70.5849 86.0819C69.463 85.9255 67.6386 85.6128 66.5361 85.3978C65.4337 85.1828 63.6581 84.7822 62.5849 84.5086C61.5118 84.2447 59.863 83.7854 58.9264 83.5021C57.9898 83.2089 56.5361 82.7398 55.7069 82.4467C54.8776 82.1535 53.6679 81.704 53.0239 81.4499C52.38 81.1959 51.1118 80.6584 50.1947 80.2578C49.2776 79.8473 48.0483 79.2806 47.463 78.9874C46.8679 78.6845 45.863 78.1568 45.2191 77.805C44.5752 77.4532 43.502 76.8376 42.8288 76.4369C42.1557 76.0363 40.9459 75.2643 40.1459 74.7268C39.3361 74.1894 38.1557 73.349 37.5118 72.8604C36.8679 72.3718 35.8142 71.5314 35.1703 70.9939C34.5264 70.4565 33.3264 69.362 32.4971 68.5509C31.6776 67.7496 30.5947 66.6258 30.0971 66.0591C29.6093 65.4923 28.8581 64.5933 28.4386 64.0558C28.0191 63.5183 27.2971 62.5021 26.8288 61.8082C26.3703 61.1144 25.6776 59.9613 25.2971 59.2675C24.9069 58.5737 24.3605 57.4499 24.0679 56.7757C23.7752 56.1014 23.3557 55.0069 23.141 54.3327C22.9166 53.6584 22.6532 52.7594 22.5459 52.3294C22.4386 51.8995 22.2532 51.0004 22.1459 50.3262C22.0191 49.5835 21.9215 48.4109 21.8825 47.3457C21.8435 46.2512 21.8727 45.1568 21.941 44.463C22.0093 43.8473 22.1654 42.792 22.302 42.1177C22.4386 41.4434 22.741 40.3001 22.9849 39.577C23.2191 38.8538 23.6874 37.7105 24.0093 37.0363C24.3313 36.362 24.7508 35.5705 24.9264 35.2773C25.1118 34.9841 25.2581 34.7105 25.2679 34.6714Z" fill="#67CAF5"/>
</g>
<defs>
<clipPath id="clip0_345_2183">
<rect width="156" height="120" fill="white"/>
</clipPath>
</defs>
</svg>
