<svg width="200" height="67" viewBox="0 0 200 67" fill="none" xmlns="http://www.w3.org/2000/svg">
<path d="M30.2266 0C30.2803 0.0193439 36.4985 4.71046 44.0781 10.4365C51.6735 16.1744 57.9481 20.9224 58.0215 20.9902C58.0948 21.058 58.2013 21.2165 58.2578 21.3408C58.3425 21.5217 58.3491 21.6125 58.3096 21.7764C58.27 21.9233 58.1622 22.0702 57.9814 22.2285C57.8289 22.3642 57.4561 22.6129 57.1455 22.7881C56.8385 22.9643 50.7408 25.8074 43.5986 29.1025C36.4551 32.3983 30.5141 35.1407 30.1865 35.3047V46.3955C30.1865 52.5009 30.204 57.5041 30.2266 57.5098C30.262 57.5179 31.1002 57.1852 32.1064 56.7744C33.1173 56.3561 35.2411 55.48 36.8223 54.8242C38.4035 54.1684 40.8996 53.0887 42.3564 52.416C43.8133 51.749 45.5697 50.9525 46.2529 50.6416C46.9362 50.3307 47.8229 49.9287 48.2295 49.7422C48.6361 49.5613 49.2065 49.267 49.5 49.0918C49.7937 48.9165 50.2513 48.5999 50.5166 48.3965C50.7762 48.193 51.1144 47.871 51.2725 47.6846C51.4249 47.498 51.6339 47.164 51.7412 46.9492C51.8823 46.6554 51.9391 46.4521 51.9561 46.1582C51.973 45.9377 52.0242 45.0899 52.0693 44.2646C52.12 43.4418 52.1536 42.7648 52.1426 42.7607C52.1313 42.7551 50.6908 43.4104 48.9346 44.2188C47.1784 45.0215 45.7269 45.6717 45.71 45.666C45.6722 45.6405 43.9754 44.4815 41.916 43.0771C39.852 41.6658 38.1764 40.4915 38.1943 40.4658C38.2169 40.4489 42.2887 38.5716 47.2412 36.3047C52.1935 34.0322 56.429 32.1218 56.6436 32.0596C56.8581 31.9918 57.2305 31.9179 57.4619 31.8896C57.7158 31.8558 58.015 31.8558 58.207 31.8896C58.3877 31.9179 58.6312 31.9857 58.7441 32.0479C58.8626 32.1044 59.0429 32.2515 59.1445 32.3701C59.2404 32.4887 59.3702 32.7034 59.4268 32.8447C59.5171 33.0822 59.5231 33.6422 59.54 41.0703C59.5513 46.7327 59.5403 49.1809 59.4951 49.5215C59.4556 49.7871 59.3654 50.2451 59.292 50.5391C59.2129 50.833 59.0379 51.342 58.9023 51.6699C58.7612 51.9978 58.4957 52.5068 58.3037 52.8008C58.1117 53.0947 57.8004 53.5014 57.6084 53.6992C57.4221 53.897 57.1235 54.1518 56.9541 54.2705C56.7847 54.3836 50.7079 57.1708 43.457 60.4609C36.2063 63.7453 30.2317 66.4242 30.1865 66.4072C30.136 66.3864 28.3532 65.1233 22.3652 60.8223L22.3086 29.8945L18.7119 27.4404C16.7368 26.0941 15.0923 24.9951 15.0527 24.9873C15.0132 24.9873 14.9904 30.2166 14.9678 56.0684L7.59863 51.0762V19.8711L3.85938 17.3271C1.80965 15.9253 0.0757861 14.7435 0.0136719 14.6982C-0.0866838 14.619 0.178161 14.4787 7.25977 11.0244L18.6777 18.752C24.9629 22.9974 30.1413 26.4858 30.1865 26.4971C30.2321 26.5082 31.096 26.1348 32.1064 25.6602C33.1173 25.1909 33.9589 24.7894 33.9814 24.7725C34.0037 24.7496 33.2697 24.0937 32.3438 23.3193C31.4233 22.5393 30.559 21.8046 30.1807 21.4541L30.1865 17.1973C30.1865 14.8625 30.204 12.9351 30.2266 12.9238C30.2752 12.9283 32.7632 14.8042 35.7773 17.1123C38.8042 19.4301 41.323 21.3356 41.3682 21.3525C41.4174 21.3675 42.2737 21.0006 43.2705 20.5439C44.2657 20.085 45.0783 19.6979 45.0889 19.6738C45.0889 19.6569 41.7404 17.1636 30.2148 8.61621L30.1982 4.30859C30.1926 1.93994 30.204 0 30.2266 0ZM141.124 19.1699C141.248 19.17 141.424 19.216 141.52 19.2725C141.61 19.3292 141.722 19.4535 141.762 19.5381C141.818 19.6727 141.829 23.0018 141.812 36.2656C141.801 52.0262 141.796 52.8576 141.694 53.4512C141.638 53.7961 141.508 54.4007 141.406 54.8076C141.305 55.2089 141.129 55.7965 141.011 56.1074C140.892 56.4183 140.688 56.8876 140.559 57.1533C140.429 57.419 140.141 57.8997 139.921 58.2275C139.706 58.5554 139.339 59.0361 139.107 59.3018C138.876 59.5673 138.521 59.9233 138.323 60.0986C138.126 60.2682 137.808 60.5286 137.622 60.6699C137.436 60.8113 137.08 61.0545 136.832 61.207C136.584 61.3653 136.137 61.6138 135.844 61.7607C135.55 61.9077 135.025 62.1395 134.687 62.2695C134.342 62.4052 133.732 62.6035 133.331 62.7109C132.924 62.824 132.314 62.971 131.976 63.0332C131.631 63.0954 131.038 63.1911 130.648 63.2363C130.259 63.2815 129.423 63.3385 128.785 63.3555C128.113 63.3724 127.226 63.3609 126.667 63.3213C126.136 63.2874 125.352 63.2028 124.917 63.1406C124.482 63.0784 123.844 62.9649 123.505 62.8857C123.16 62.8122 122.652 62.6656 122.375 62.5752C122.093 62.4791 121.647 62.2866 120.879 61.9023V55.7969L121.257 55.9951C121.471 56.1025 121.912 56.2832 122.245 56.3906C122.584 56.498 123.166 56.6501 123.544 56.7236C123.928 56.8028 124.634 56.9052 125.114 56.9561C125.764 57.0295 126.289 57.046 127.147 57.0234C127.955 57.0065 128.502 56.961 128.954 56.8818C129.31 56.814 129.83 56.6954 130.112 56.6162C130.389 56.537 130.874 56.3451 131.185 56.1982C131.495 56.0513 131.913 55.8193 132.116 55.6836C132.32 55.5479 132.664 55.2595 132.879 55.0391C133.099 54.8186 133.376 54.4854 133.5 54.2988C133.619 54.1123 133.793 53.7783 133.884 53.5635C133.98 53.343 134.099 52.9361 134.155 52.6592C134.234 52.2861 134.263 51.9016 134.263 50.3135H134.121C134.014 50.3136 133.935 50.3815 133.788 50.6074C133.681 50.7714 133.41 51.088 133.179 51.3027C132.953 51.5232 132.523 51.8627 132.229 52.0605C131.936 52.2583 131.541 52.4955 131.354 52.5859C131.168 52.682 130.801 52.8457 130.535 52.9531C130.27 53.0605 129.824 53.2078 129.547 53.2812C129.265 53.3604 128.824 53.4618 128.559 53.5127C128.282 53.5636 127.615 53.6149 126.978 53.6318C126.294 53.6544 125.662 53.6372 125.312 53.5977C125.001 53.5581 124.493 53.4791 124.183 53.417C123.872 53.3492 123.273 53.1855 122.855 53.0498C122.438 52.9085 121.788 52.6477 121.415 52.4668C121.042 52.2916 120.523 52.0037 120.258 51.8398C119.992 51.6759 119.535 51.3531 119.241 51.127C118.948 50.9065 118.445 50.4549 118.129 50.1328C117.807 49.8163 117.418 49.3862 117.254 49.1826C117.096 48.9791 116.791 48.5495 116.576 48.2217C116.362 47.8938 116.039 47.3223 115.853 46.9492C115.672 46.5761 115.424 45.9941 115.3 45.6494C115.176 45.3047 114.995 44.7114 114.904 44.3213C114.808 43.9312 114.69 43.3711 114.645 43.0771C114.599 42.7833 114.532 42.2353 114.498 41.8623C114.47 41.4892 114.441 40.8496 114.441 40.4482C114.441 40.0412 114.47 39.4082 114.498 39.0352C114.532 38.6621 114.611 38.0404 114.673 37.6504C114.741 37.2604 114.882 36.6274 114.983 36.2373C115.091 35.8472 115.294 35.236 115.436 34.8799C115.577 34.5238 115.825 33.9759 115.988 33.665C116.152 33.3541 116.441 32.8678 116.627 32.5908C116.813 32.3138 117.13 31.8786 117.327 31.6299C117.525 31.3812 117.903 30.963 118.168 30.6973C118.433 30.4317 118.868 30.0474 119.128 29.8438C119.393 29.6346 119.822 29.3286 120.088 29.1533C120.353 28.9838 120.845 28.7018 121.189 28.5322C121.528 28.3571 122.053 28.1248 122.347 28.0117C122.64 27.8987 123.16 27.735 123.505 27.6445C123.844 27.5541 124.341 27.4407 124.606 27.3955C124.872 27.3446 125.431 27.2829 125.849 27.249C126.351 27.2151 126.871 27.2151 127.385 27.249C127.814 27.2829 128.434 27.356 128.768 27.4238C129.106 27.486 129.643 27.627 129.971 27.7344C130.298 27.8418 130.817 28.0515 131.128 28.2041C131.438 28.351 131.919 28.622 132.195 28.8086C132.478 28.9895 132.896 29.3235 133.128 29.5439C133.365 29.7644 133.658 30.0924 133.782 30.2676C133.946 30.4993 134.042 30.5896 134.263 30.584V26.9658L137.441 23.1328C139.192 21.0242 140.683 19.2663 140.757 19.2324C140.836 19.1985 141 19.1699 141.124 19.1699ZM152.152 9.27148C152.305 9.27148 152.401 9.31122 152.644 9.56543L152.655 20.0752C152.667 25.8525 152.689 30.584 152.712 30.584C152.741 30.5829 152.859 30.442 152.982 30.2676C153.107 30.0925 153.361 29.8042 153.547 29.6289C153.733 29.4537 154.05 29.1931 154.253 29.0518C154.456 28.9048 154.835 28.6616 155.101 28.5146C155.366 28.362 155.845 28.13 156.173 28C156.5 27.87 157.009 27.701 157.303 27.6162C157.596 27.5371 158.065 27.4347 158.348 27.3838C158.624 27.3386 159.183 27.2765 159.59 27.2539C159.991 27.2313 160.674 27.2315 161.098 27.2598C161.527 27.2824 162.216 27.373 162.622 27.4521C163.034 27.5313 163.667 27.6948 164.022 27.8135C164.378 27.9322 164.937 28.1477 165.265 28.2891C165.592 28.436 166.123 28.7131 166.445 28.9053C166.767 29.0974 167.286 29.4472 167.603 29.6846C167.913 29.922 168.405 30.3468 168.682 30.6182C168.964 30.8952 169.348 31.3132 169.534 31.5449C169.726 31.7767 170.054 32.2233 170.263 32.5342C170.472 32.8451 170.828 33.4781 171.054 33.9473C171.285 34.4107 171.556 35.0607 171.669 35.3887C171.776 35.7166 171.946 36.2994 172.036 36.6895C172.132 37.0795 172.245 37.6728 172.296 38.0176C172.347 38.3624 172.409 39.0465 172.432 39.5439C172.46 40.0414 172.46 40.856 172.432 41.3535C172.409 41.851 172.347 42.5351 172.296 42.8799C172.245 43.2248 172.132 43.8181 172.036 44.208C171.946 44.598 171.776 45.1799 171.669 45.5078C171.556 45.8356 171.285 46.4801 171.054 46.9492C170.828 47.4128 170.472 48.0524 170.263 48.3633C170.054 48.6742 169.726 49.1208 169.534 49.3525C169.348 49.5843 168.987 49.9738 168.738 50.2168C168.49 50.4655 168.094 50.8222 167.862 51.0088C167.631 51.1954 167.196 51.5063 166.902 51.7041C166.609 51.8963 166.112 52.1845 165.802 52.3428C165.491 52.5067 164.971 52.7389 164.644 52.8633C164.316 52.9877 163.717 53.1795 163.316 53.2812C162.91 53.3886 162.278 53.5126 161.905 53.5635C161.369 53.6426 160.968 53.6544 159.985 53.6318C158.941 53.6092 158.63 53.5804 158.048 53.4561C157.669 53.3769 157.088 53.2185 156.749 53.1055C156.416 52.998 155.891 52.7834 155.58 52.6309C155.27 52.4782 154.795 52.2072 154.524 52.0264C154.253 51.8455 153.852 51.5346 153.626 51.3311C153.4 51.1276 153.113 50.8166 152.988 50.6357C152.859 50.4612 152.741 50.3146 152.712 50.3135C152.689 50.3135 152.672 50.9634 152.672 53.1963H145.049L145.043 17.0449L148.352 13.2852C150.176 11.2161 151.724 9.469 151.803 9.39551C151.893 9.31662 152.017 9.27152 152.152 9.27148ZM187.007 26.8926C187.396 26.9096 187.978 26.9548 188.306 27C188.633 27.0453 189.175 27.1584 189.52 27.2432C189.858 27.3336 190.395 27.5032 190.705 27.6162C191.016 27.7293 191.524 27.955 191.835 28.1133C192.145 28.2771 192.613 28.5484 192.879 28.7236C193.144 28.8932 193.563 29.1986 193.812 29.3965C194.06 29.5943 194.438 29.9225 194.652 30.126C194.861 30.3294 195.234 30.7252 195.477 31.0078C195.714 31.2848 196.076 31.7484 196.279 32.0254C196.483 32.3024 196.833 32.8399 197.053 33.2129C197.279 33.5861 197.634 34.2474 197.849 34.6826C198.058 35.1179 198.358 35.802 198.516 36.209C198.668 36.6099 198.814 36.994 198.831 37.0566C198.859 37.1584 198.012 37.5991 190.829 41.251C186.413 43.4952 182.799 45.3557 182.799 45.3896C182.8 45.4241 182.992 45.593 183.223 45.7734C183.454 45.9486 183.9 46.2143 184.211 46.3613C184.522 46.514 184.979 46.6898 185.228 46.752C185.476 46.8141 185.928 46.8936 186.228 46.9219C186.589 46.9614 186.973 46.9614 187.328 46.9219C187.633 46.8936 188.074 46.8312 188.306 46.7803C188.537 46.7293 188.984 46.6046 189.294 46.5029C189.604 46.3955 190.101 46.1981 190.395 46.0625C190.688 45.9268 191.174 45.6723 191.468 45.4971C191.761 45.3218 192.213 45.0272 192.467 44.835C192.727 44.6484 193.117 44.3213 193.337 44.1064C193.557 43.8973 193.896 43.5355 194.094 43.3037C194.286 43.0719 194.546 42.7266 194.67 42.54C194.794 42.3535 194.992 42.0204 195.11 41.8057C195.228 41.5864 195.334 41.4056 195.347 41.3926C195.358 41.3869 196.397 41.7437 197.662 42.1846C198.933 42.6255 199.978 42.9926 199.995 43.0039C200.011 43.017 199.989 43.1745 199.944 43.3486C199.905 43.5239 199.78 43.9368 199.673 44.2646C199.566 44.5925 199.323 45.1745 199.137 45.5645C198.956 45.9545 198.634 46.526 198.431 46.8369C198.227 47.1478 197.893 47.6171 197.685 47.8828C197.481 48.1486 197.036 48.6456 196.691 48.9902C196.353 49.3294 195.855 49.7823 195.59 49.9971C195.324 50.2063 194.855 50.5507 194.545 50.7598C194.234 50.9689 193.715 51.2908 193.388 51.4717C193.06 51.6526 192.523 51.9302 192.185 52.0771C191.851 52.2241 191.258 52.461 190.857 52.5967C190.462 52.7323 189.858 52.9082 189.52 52.9873C189.175 53.0721 188.644 53.1794 188.333 53.2246C188.022 53.2755 187.299 53.3317 186.724 53.3486C186.075 53.3712 185.431 53.355 185.03 53.3154C184.675 53.2759 184.07 53.1848 183.686 53.1113C183.307 53.0322 182.687 52.8682 182.303 52.7383C181.924 52.6139 181.308 52.3655 180.936 52.1846C180.563 52.0037 180.044 51.7264 179.778 51.5625C179.513 51.3986 179.055 51.0818 178.762 50.8613C178.468 50.6352 177.921 50.1494 177.548 49.7764C177.175 49.4034 176.639 48.7931 176.356 48.4199C176.08 48.0468 175.673 47.447 175.458 47.0908C175.243 46.7347 174.911 46.1074 174.719 45.7061C174.527 45.2991 174.255 44.6547 174.114 44.2646C173.973 43.8747 173.781 43.2417 173.685 42.8516C173.589 42.4615 173.47 41.89 173.425 41.5791C173.374 41.2681 173.323 40.5954 173.301 40.0811C173.284 39.5101 173.295 38.9051 173.335 38.5264C173.374 38.1815 173.465 37.5933 173.538 37.209C173.617 36.8302 173.781 36.2085 173.911 35.8242C174.035 35.4454 174.312 34.778 174.526 34.3428C174.735 33.9075 175.091 33.2858 175.306 32.958C175.526 32.6301 175.876 32.1494 176.091 31.8838C176.3 31.6237 176.706 31.1771 176.982 30.8945C177.265 30.6177 177.711 30.2112 177.971 30.002C178.236 29.7872 178.728 29.4253 179.072 29.1992C179.411 28.9732 179.936 28.6564 180.229 28.498C180.523 28.3454 181.043 28.0964 181.388 27.9551C181.727 27.8138 182.285 27.6045 182.63 27.4971C182.969 27.3897 183.545 27.2424 183.9 27.1689C184.256 27.0898 184.804 27.0056 185.114 26.9717C185.425 26.9378 185.821 26.898 185.99 26.8867C186.16 26.8754 186.617 26.8813 187.007 26.8926ZM99.7705 26.8076C100.233 26.802 100.854 26.8245 101.153 26.8584C101.458 26.8867 101.961 26.9661 102.271 27.0283C102.582 27.0905 103.164 27.2481 103.57 27.3838C103.971 27.5195 104.57 27.7577 104.897 27.916C105.225 28.0743 105.835 28.43 106.253 28.707C106.671 28.9897 107.281 29.4529 107.608 29.7412C107.93 30.0352 108.399 30.4996 108.642 30.7822C108.884 31.0592 109.274 31.5446 109.5 31.8555C109.726 32.1664 110.098 32.7265 110.324 33.0996C110.55 33.4727 110.906 34.134 111.115 34.5693C111.324 35.0046 111.64 35.7284 111.815 36.1807C111.99 36.6321 112.12 37.0216 112.109 37.0566C112.098 37.0906 108.472 38.945 104.062 41.1836C99.6507 43.4196 96.0451 45.2662 96.0312 45.293C96.0312 45.3212 96.241 45.497 96.4951 45.6836C96.7549 45.8758 97.1894 46.1417 97.4717 46.2773C97.7484 46.413 98.2344 46.5937 98.5449 46.6729C99.036 46.8084 99.2224 46.8254 100.013 46.8311C100.679 46.8311 101.052 46.8086 101.425 46.7295C101.701 46.673 102.198 46.5429 102.525 46.4355C102.853 46.3281 103.474 46.0674 103.909 45.8525C104.344 45.6377 104.926 45.3098 105.208 45.1289C105.485 44.9424 105.942 44.6038 106.225 44.3721C106.501 44.1403 106.93 43.7213 107.179 43.4443C107.422 43.1617 107.772 42.7037 107.958 42.4268C108.144 42.1498 108.371 41.7716 108.625 41.2686L108.862 41.3584C108.999 41.404 110.043 41.7776 111.194 42.1787C112.341 42.5857 113.289 42.9192 113.295 42.9248C113.294 42.9336 113.244 43.1694 113.171 43.4443C113.103 43.7212 112.945 44.2076 112.832 44.5186C112.713 44.8295 112.487 45.3499 112.323 45.6777C112.159 46.0056 111.821 46.5762 111.572 46.9492C111.324 47.3223 110.883 47.9052 110.584 48.25C110.29 48.5948 109.85 49.053 109.607 49.2734C109.359 49.4939 108.919 49.861 108.625 50.0928C108.331 50.3245 107.885 50.6415 107.637 50.7998C107.388 50.9637 106.902 51.2463 106.563 51.4385C106.219 51.6307 105.688 51.8966 105.378 52.0322C105.067 52.1679 104.547 52.3713 104.22 52.4844C103.892 52.6031 103.333 52.767 102.978 52.8574C102.622 52.9422 102.086 53.0546 101.792 53.1055C101.498 53.1563 100.9 53.2247 100.465 53.2529C100.03 53.2868 99.3916 53.2982 99.0527 53.2812C98.7083 53.2643 98.1379 53.2073 97.7822 53.1621C97.4264 53.1112 96.788 52.9873 96.3701 52.8799C95.9523 52.7725 95.3147 52.569 94.959 52.4277C94.6032 52.2864 94.0945 52.0544 93.8291 51.9131C93.5637 51.7718 93.0673 51.4721 92.7285 51.2461C92.384 51.02 91.864 50.6298 91.5703 50.3867C91.2767 50.138 90.8193 49.7086 90.5596 49.4316C90.2998 49.1547 89.8818 48.6515 89.6221 48.3066C89.368 47.9619 89.0295 47.4812 88.877 47.2324C88.7245 46.9837 88.4648 46.5371 88.3066 46.2432C88.1485 45.9492 87.917 45.4629 87.7871 45.1689C87.6572 44.875 87.4422 44.3149 87.3066 43.9248C87.1768 43.5348 87.0128 42.9755 86.9395 42.6816C86.8717 42.3877 86.7815 41.9411 86.7363 41.6924C86.6968 41.4436 86.6296 40.8552 86.5957 40.3916C86.5506 39.7644 86.5506 39.3349 86.5957 38.7246C86.6296 38.2724 86.7256 37.5883 86.8047 37.1982C86.8837 36.8083 87.0581 36.1469 87.1992 35.7285C87.3347 35.3102 87.6121 34.6319 87.8154 34.2305C88.0131 33.8234 88.3573 33.2122 88.5889 32.873C88.8148 32.5282 89.1647 32.0475 89.3623 31.7988C89.5656 31.5501 90.0007 31.0817 90.3281 30.7539C90.6556 30.4261 91.1806 29.968 91.4912 29.7305C91.7962 29.493 92.2649 29.1589 92.5303 28.9893C92.7956 28.8197 93.2248 28.5659 93.4902 28.4189C93.7556 28.2776 94.2359 28.0458 94.5635 27.9102C94.891 27.7745 95.4446 27.5652 95.7891 27.4521C96.139 27.3392 96.6354 27.1982 96.8896 27.1416C97.1494 27.0794 97.6246 26.9942 97.9521 26.9434C98.2794 26.8925 98.6348 26.8473 98.7422 26.8359C98.8495 26.8246 99.3131 26.8076 99.7705 26.8076ZM90.7803 17.9209V24.9873H82.7607V52.6875H75.0244L74.9961 25.0156L67.0059 24.9873V17.9209H90.7803ZM158.94 34.001C158.551 33.9897 158.174 33.99 158.094 34.0068C158.015 34.0181 157.771 34.0579 157.557 34.0918C157.342 34.1257 156.958 34.2215 156.71 34.2949C156.461 34.3741 156.015 34.5612 155.722 34.7139C155.428 34.8608 154.97 35.16 154.705 35.3691C154.44 35.584 154.05 35.9687 153.841 36.2344C153.604 36.5283 153.338 36.9526 153.146 37.3369C152.983 37.6817 152.779 38.2012 152.706 38.4951C152.627 38.789 152.537 39.247 152.503 39.5127C152.475 39.7782 152.446 40.1851 152.446 40.417C152.446 40.6488 152.475 41.0566 152.503 41.3223C152.531 41.588 152.621 42.0574 152.7 42.3682C152.785 42.7073 152.966 43.1818 153.146 43.5547C153.338 43.939 153.604 44.3574 153.841 44.6514C154.05 44.9171 154.44 45.3074 154.705 45.5166C154.97 45.7314 155.4 46.0196 155.665 46.1553C155.93 46.2909 156.377 46.4771 156.653 46.5732C156.93 46.6637 157.427 46.7829 157.755 46.8281C158.082 46.879 158.517 46.918 158.731 46.918C158.94 46.918 159.308 46.8904 159.551 46.8564C159.788 46.8225 160.188 46.7487 160.437 46.6865C160.685 46.6244 161.154 46.4436 161.481 46.291C161.809 46.1327 162.238 45.8892 162.441 45.7422C162.645 45.5952 162.995 45.2845 163.227 45.0527C163.452 44.821 163.752 44.4652 163.888 44.2617C164.018 44.0582 164.215 43.7015 164.322 43.4697C164.43 43.2379 164.577 42.8821 164.639 42.6787C164.706 42.4753 164.802 42.0967 164.853 41.8311C164.92 41.5032 164.949 41.0615 164.949 40.4453C164.949 39.818 164.921 39.394 164.858 39.0605C164.802 38.7949 164.695 38.3766 164.61 38.1279C164.526 37.8794 164.384 37.5236 164.294 37.3369C164.198 37.1504 164.012 36.8334 163.882 36.6299C163.746 36.4264 163.452 36.0706 163.227 35.8389C162.995 35.6014 162.645 35.2898 162.441 35.1484C162.238 35.0015 161.871 34.7874 161.623 34.6631C161.375 34.5388 161.013 34.3796 160.821 34.3174C160.624 34.2495 160.279 34.1593 160.059 34.1084C159.833 34.0575 159.33 34.0123 158.94 34.001ZM128.361 34.001C127.955 33.9897 127.474 34.001 127.288 34.0293C127.102 34.0632 126.746 34.1371 126.498 34.1992C126.25 34.2614 125.832 34.4086 125.566 34.5273C125.301 34.6461 124.894 34.8659 124.662 35.0186C124.431 35.1712 124.018 35.5107 123.753 35.7764C123.482 36.0421 123.149 36.4435 123.014 36.6582C122.873 36.8786 122.692 37.1895 122.607 37.3535C122.528 37.5117 122.387 37.8676 122.291 38.1445C122.201 38.4159 122.087 38.8799 122.042 39.1738C121.991 39.4677 121.952 40.044 121.952 40.4453C121.952 40.8693 121.991 41.4069 122.042 41.7178C122.093 42.0117 122.194 42.447 122.273 42.6787C122.347 42.9105 122.505 43.306 122.624 43.5547C122.743 43.8033 122.996 44.2102 123.183 44.459C123.363 44.7077 123.68 45.0642 123.878 45.2451C124.076 45.426 124.392 45.6804 124.578 45.8047C124.764 45.9347 125.108 46.1331 125.34 46.2461C125.571 46.3592 125.967 46.5166 126.216 46.5957C126.464 46.6748 126.831 46.771 127.034 46.8105C127.237 46.8501 127.746 46.8848 128.164 46.8848C128.582 46.8847 129.118 46.8501 129.35 46.8105C129.581 46.771 129.976 46.6748 130.225 46.5957C130.473 46.5166 130.919 46.3303 131.213 46.1777C131.506 46.0308 131.953 45.7428 132.201 45.5449C132.45 45.3471 132.772 45.0475 132.913 44.8779C133.054 44.7084 133.297 44.3802 133.449 44.1484C133.596 43.9168 133.805 43.5212 133.912 43.2725C134.014 43.0237 134.144 42.6443 134.206 42.4238C134.263 42.2089 134.342 41.8134 134.376 41.5479C134.421 41.2313 134.438 40.7451 134.415 40.1348C134.398 39.5923 134.347 39.0272 134.291 38.7783C134.24 38.5467 134.116 38.1397 134.02 37.874C133.918 37.6083 133.732 37.2005 133.597 36.9688C133.467 36.737 133.201 36.3587 133.003 36.127C132.811 35.8952 132.449 35.5385 132.195 35.335C131.941 35.1315 131.501 34.8432 131.207 34.6963C130.913 34.5494 130.524 34.3795 130.338 34.3174C130.152 34.2608 129.795 34.1651 129.547 34.1143C129.298 34.0634 128.768 34.0066 128.361 34.001ZM186.526 33.3232C186.12 33.3119 185.639 33.3225 185.453 33.3564C185.267 33.3847 184.923 33.4642 184.691 33.5264C184.46 33.5942 184.036 33.7468 183.76 33.8711C183.483 33.9898 183.008 34.2504 182.715 34.4482C182.421 34.646 181.964 35.0183 181.704 35.2783C181.444 35.5383 181.1 35.9573 180.931 36.2061C180.767 36.4548 180.535 36.89 180.422 37.167C180.309 37.444 180.162 37.919 180.105 38.2129C180.015 38.6536 179.999 38.8911 180.021 39.5127C180.038 39.931 180.066 40.3328 180.083 40.4062C180.1 40.4737 180.134 40.5298 180.156 40.5303C180.184 40.5303 182.489 39.372 185.284 37.9531C188.073 36.5376 190.378 35.3581 190.423 35.3301C190.457 35.3018 190.304 35.1034 190.027 34.832C189.779 34.5833 189.384 34.261 189.152 34.1084C188.921 33.9614 188.576 33.7746 188.39 33.7012C188.203 33.6221 187.871 33.5153 187.656 33.4531C187.396 33.3796 187.012 33.3402 186.526 33.3232ZM99.2227 33.2158C99.1267 33.2271 98.8604 33.2659 98.6289 33.2998C98.3973 33.3338 97.9908 33.4358 97.7256 33.5205C97.4602 33.6053 97.031 33.786 96.7656 33.916C96.5002 34.0517 96.145 34.2504 95.9756 34.3691C95.8062 34.4822 95.5011 34.7191 95.2979 34.8887C95.0946 35.0583 94.7558 35.4091 94.5469 35.6748C94.3041 35.9688 94.0438 36.3871 93.8574 36.7715C93.6768 37.1332 93.5013 37.5971 93.4336 37.874C93.3715 38.1398 93.304 38.5695 93.2871 38.835C93.2646 39.1007 93.2759 39.5754 93.3154 39.8975C93.3493 40.214 93.3893 40.4736 93.4062 40.4736C93.4482 40.4608 95.7536 39.2961 98.5615 37.8682C101.379 36.4383 103.694 35.2569 103.712 35.2451C103.729 35.2282 103.638 35.0982 103.514 34.9512C103.389 34.8042 103.107 34.5383 102.893 34.3574C102.672 34.1765 102.249 33.9055 101.933 33.7529C101.622 33.6003 101.216 33.4356 101.029 33.3848C100.843 33.3396 100.459 33.2722 100.183 33.2383C99.9063 33.2101 99.6127 33.1868 99.5332 33.1924C99.4542 33.1924 99.3186 33.2101 99.2227 33.2158Z" fill="white"/>
</svg>
