<svg width="200" height="55" viewBox="0 0 200 55" fill="none" xmlns="http://www.w3.org/2000/svg">
<path d="M143.234 0C176.995 9.38621e-08 193.917 0.0499739 194.696 0.166016C195.425 0.265497 196.221 0.530792 196.834 0.862305C197.381 1.16068 198.11 1.72425 198.458 2.13867C198.823 2.55311 199.304 3.29893 200 4.70801V50.2959L199.486 51.373C199.122 52.119 198.657 52.7323 197.994 53.3291C197.447 53.8098 196.602 54.3739 195.193 54.9375L143.731 54.9873C97.1965 55.0205 92.1878 55.0035 91.3584 54.7549C90.8612 54.6223 90.1145 54.2906 89.7002 54.0254C89.2858 53.7766 88.6565 53.2297 88.3086 52.832C87.944 52.4507 87.4628 51.705 86.7998 50.2959L86.751 27.999C86.7178 8.27258 86.7504 5.58667 86.9658 4.70801C87.115 4.16101 87.4634 3.34899 87.7617 2.90137C88.06 2.45384 88.5572 1.85709 88.8721 1.5918C89.1869 1.31004 89.8661 0.89523 90.3633 0.679688C90.8604 0.44767 91.6394 0.215799 92.1035 0.149414C92.5511 0.0831045 115.573 0.0165774 143.234 0ZM173.184 9.61523C171.394 9.61525 170.283 9.71421 169.339 9.92969C168.61 10.0955 167.532 10.3938 166.936 10.5928C166.339 10.8082 165.411 11.1899 164.864 11.4717C164.317 11.7369 163.389 12.2838 162.792 12.6816C162.195 13.0629 161.151 13.9415 160.472 14.6211C159.792 15.3008 158.864 16.3955 158.4 17.0752C157.953 17.7549 157.306 18.8986 156.975 19.6279C156.627 20.3574 156.196 21.551 156.014 22.2803C155.815 23.0097 155.583 24.2365 155.483 25.0156C155.367 25.9769 155.367 27.0708 155.483 28.4961C155.583 29.6399 155.848 31.2482 156.063 32.0605C156.279 32.8728 156.759 34.1828 157.124 34.9619C157.489 35.7411 158.234 36.9679 158.765 37.6973C159.312 38.4267 160.224 39.4705 160.82 40.001C161.4 40.5314 162.295 41.2612 162.792 41.5928C163.289 41.9409 164.3 42.521 165.029 42.8857C165.758 43.2504 166.886 43.7141 167.516 43.8965C168.145 44.0954 169.306 44.3615 170.085 44.5107C170.864 44.6433 172.272 44.7422 173.233 44.7422C174.195 44.7422 175.637 44.6268 176.466 44.4941C177.295 44.3449 178.621 43.9967 179.449 43.7314C180.278 43.4496 181.421 42.9682 182.018 42.6367C182.614 42.3052 183.576 41.6918 184.173 41.2607C184.77 40.8296 185.781 39.9178 186.41 39.2549C187.04 38.5752 187.869 37.5812 188.217 37.0342C188.581 36.4871 189.161 35.4423 189.492 34.7129C189.84 33.9835 190.272 32.79 190.471 32.0605C190.653 31.3311 190.902 30.0211 191.001 29.1592C191.15 27.9659 191.15 27.0873 191.001 25.5957C190.902 24.5017 190.653 23.0098 190.471 22.2803C190.272 21.5509 189.725 20.1411 189.228 19.1299C188.714 18.0856 187.885 16.7429 187.288 15.9805C186.708 15.2511 185.597 14.1406 184.835 13.5273C184.056 12.9141 182.714 12.0356 181.853 11.6045C180.991 11.1569 179.747 10.6257 179.117 10.4268C178.487 10.2444 177.46 9.96268 176.83 9.83008C176.117 9.68091 174.824 9.59866 173.184 9.61523ZM96.5137 27.0713L96.4971 44.2451H104.949V33.9668C110.419 33.9668 111.513 33.8844 112.656 33.6523C113.485 33.4866 114.711 33.0884 115.391 32.7734C116.07 32.4585 117.098 31.8451 117.661 31.4141C118.241 30.9997 119.037 30.2209 119.451 29.707C119.865 29.1766 120.462 28.2149 120.777 27.585C121.076 26.955 121.474 25.9435 121.623 25.3467C121.838 24.551 121.921 23.6722 121.921 22.0312C121.921 20.4233 121.838 19.4949 121.623 18.7158C121.457 18.1191 121.175 17.2738 120.977 16.8096C120.794 16.362 120.363 15.5667 120.031 15.0693C119.683 14.572 118.921 13.6925 118.308 13.1289C117.578 12.4328 116.749 11.8528 115.838 11.4219C115.092 11.0572 113.882 10.5925 113.153 10.3936C111.894 10.0455 111.412 10.0292 104.17 9.96289L96.5137 9.91309V27.0713ZM125.352 27.0713V44.2285H133.805V33.4531L137.186 33.5361L143.583 44.2285H152.533C152.152 43.5323 150.445 40.7805 148.506 37.6807L144.959 32.0439C146.401 31.1158 147.263 30.3702 147.81 29.7734C148.356 29.1933 149.036 28.2316 149.334 27.6348C149.616 27.0547 149.981 26.2094 150.113 25.7451C150.262 25.2976 150.444 24.3192 150.544 23.5898C150.66 22.6615 150.66 21.7825 150.527 20.6055C150.428 19.6937 150.196 18.4668 150.014 17.8701C149.831 17.29 149.417 16.3125 149.086 15.7158C148.738 15.0859 147.975 14.1239 147.246 13.3945C146.301 12.4662 145.621 11.969 144.577 11.4551C143.798 11.0573 142.572 10.5769 141.843 10.3779C140.583 10.0464 140.086 10.0126 132.942 9.96289L125.368 9.89648L125.352 27.0713Z" fill="white"/>
<path d="M171.162 17.7877C170.615 17.9037 169.687 18.2518 169.09 18.5502C168.493 18.8486 167.615 19.4785 167.118 19.9427C166.621 20.4069 165.974 21.186 165.676 21.6502C165.361 22.1309 164.914 23.109 164.665 23.8052C164.284 24.9159 164.217 25.3635 164.234 27.0047C164.234 28.2977 164.317 29.2592 164.516 29.9886C164.681 30.5854 165.046 31.5137 165.328 32.0442C165.626 32.5913 166.157 33.3704 166.538 33.7848C166.902 34.1993 167.615 34.8126 168.112 35.1608C168.609 35.4923 169.587 35.9565 170.283 36.1886C171.328 36.5367 171.891 36.6196 173.2 36.6196C174.129 36.6196 175.222 36.5201 175.803 36.3543C176.349 36.2217 177.162 35.9068 177.626 35.6581C178.073 35.4094 178.985 34.6966 179.631 34.0501C180.416 33.2765 180.979 32.5305 181.322 31.8121C181.62 31.2153 181.968 30.2207 182.101 29.5742C182.233 28.9277 182.349 27.8501 182.349 27.1705C182.349 26.4908 182.233 25.3967 182.101 24.7667C181.968 24.1202 181.603 23.0758 181.288 22.4459C180.974 21.7994 180.394 20.9042 179.996 20.4566C179.581 19.9924 178.852 19.3625 178.355 19.0475C177.858 18.7326 176.979 18.3016 176.383 18.086C175.62 17.8042 174.841 17.6716 173.731 17.6219C172.753 17.5887 171.775 17.6385 171.162 17.7877ZM104.949 21.9486V26.1758C108.861 26.1758 110.303 26.0929 110.667 25.9935C111.032 25.8774 111.595 25.6288 111.91 25.4133C112.225 25.2143 112.673 24.717 112.905 24.3191C113.269 23.7058 113.319 23.4074 113.319 22.1144C113.319 20.8545 113.253 20.4898 112.905 19.8101C112.673 19.3459 112.242 18.8155 111.91 18.5999C111.595 18.3844 110.883 18.1026 110.336 17.97C109.722 17.8208 108.496 17.7213 107.137 17.7213H104.949V21.9486ZM133.804 21.932L133.788 26.1758C139.423 26.0929 139.522 26.0764 140.301 25.6288C140.915 25.2806 141.18 24.9822 141.528 24.2197C141.892 23.4737 141.992 23.0427 141.992 22.1144C141.992 21.4347 141.876 20.639 141.71 20.208C141.561 19.7935 141.13 19.1802 140.765 18.832C140.384 18.5005 139.804 18.1358 139.473 18.0363C139.125 17.9368 137.716 17.8042 136.34 17.7711L133.821 17.6882L133.804 21.932Z" fill="white"/>
<path d="M62.2715 17.8701C63.1829 17.6215 63.8298 17.5723 65.3379 17.6221C66.829 17.6718 67.4753 17.7711 68.3203 18.0859C68.917 18.3014 69.829 18.7827 70.376 19.1309C70.9062 19.4955 71.4199 19.926 71.5029 20.0752C71.5857 20.2407 71.7344 20.3736 71.8174 20.374C71.9003 20.374 71.9668 19.8431 71.9668 18.0527H80.4199L80.3701 30.6846V30.7256C80.3206 43.2487 80.3201 43.3515 79.9561 44.6592C79.7406 45.3886 79.309 46.5 78.9775 47.1465C78.5798 47.909 77.9331 48.7376 77.1211 49.5498C76.1599 50.5112 75.5303 50.9588 74.4531 51.4893C73.6741 51.8705 72.4803 52.3352 71.8008 52.5176C71.1211 52.7165 69.8117 52.9484 68.9004 53.0479C67.9227 53.1638 66.4647 53.1971 65.3379 53.1309C64.2939 53.0646 62.9513 52.9149 62.3545 52.7988C61.7578 52.6662 60.8786 52.4015 59.5195 51.7881L59.5361 48.5059C59.5361 46.7242 59.5531 45.2544 59.5859 45.2402C59.6025 45.2402 59.9177 45.3557 60.2822 45.5049C60.6469 45.6541 61.5089 45.8693 62.1885 46.002C62.868 46.118 64.1773 46.2178 65.0889 46.2344C66.0169 46.2344 67.2265 46.1179 67.8232 45.9688C68.4199 45.8361 69.1988 45.5544 69.5635 45.3389C69.928 45.1234 70.4751 44.6929 70.79 44.3945C71.1049 44.0796 71.4866 43.5327 71.6523 43.168C71.8181 42.8033 71.9668 42.1067 71.9668 41.626C71.9668 41.1618 71.9502 40.7637 71.9336 40.7637C71.8992 40.7485 71.6178 40.9964 71.3037 41.2939C70.9722 41.5923 70.3097 42.0737 69.8125 42.3721C69.3153 42.6705 68.2712 43.0686 67.4922 43.2676C66.3486 43.5494 65.7683 43.6151 64.4258 43.5488C63.1331 43.4825 62.4365 43.35 61.2764 42.9521C60.448 42.6538 59.3714 42.1734 58.874 41.8916C58.3768 41.5932 57.4149 40.7803 56.7188 40.1006C56.0393 39.4209 55.1937 38.377 54.8457 37.7803C54.4977 37.1835 54.0338 36.122 53.8184 35.4092C53.5863 34.7129 53.3211 33.5859 53.2217 32.9229C53.1057 32.2432 53.0724 30.8508 53.1221 29.6572C53.1884 27.9498 53.2878 27.3028 53.7188 26.0098C53.9839 25.1478 54.4977 23.9708 54.8457 23.3906C55.1937 22.827 55.8073 21.9652 56.2217 21.501C56.636 21.0202 57.415 20.307 57.9619 19.9092C58.5089 19.4948 59.4376 18.9478 60.0342 18.666C60.6309 18.4008 61.6253 18.0359 62.2715 17.8701ZM38.5371 17.5723C39.4153 17.5557 40.7247 17.6712 41.4209 17.8203C42.1336 17.9695 43.162 18.2679 43.709 18.4834C44.2559 18.7155 45.1504 19.1802 45.6973 19.5117C46.2442 19.8433 47.1396 20.5731 47.6865 21.1201C48.2334 21.6838 48.9292 22.5458 49.2109 23.043C49.5093 23.5237 49.9398 24.3856 50.1553 24.9326C50.3873 25.4797 50.6858 26.4912 50.835 27.1709C51.0006 27.95 51.1006 29.2426 51.1006 30.6514C51.1006 31.8781 51.0671 33.0889 50.918 33.8018H42.4658C35.808 33.8018 34.0153 33.8511 34.0127 34C34.0293 34.116 34.411 34.5974 34.8916 35.0615C35.466 35.6249 36.0844 36.0339 36.7471 36.2881C37.4929 36.5865 38.1898 36.6856 39.5654 36.752C40.5764 36.7851 41.8027 36.7352 42.2998 36.6357C42.7971 36.5362 43.7749 36.188 45.6973 35.2598L47.4707 37.1338C48.4651 38.1781 49.2607 39.1232 49.2607 39.2227C49.2597 39.3394 48.8627 39.7864 48.3828 40.2168C47.9022 40.6643 47.0733 41.2944 46.5264 41.626C45.9794 41.9575 45.0175 42.4378 44.3711 42.6699C43.7247 42.9186 42.6639 43.217 42.0176 43.3496C41.3545 43.4822 40.0285 43.582 39.0674 43.582C38.1063 43.582 36.7478 43.4655 36.0518 43.3164C35.3391 43.1672 34.1952 42.8199 33.5156 42.5381C32.8361 42.2563 31.7587 41.6918 31.1289 41.2773C30.4991 40.8628 29.5048 40.0009 28.9248 39.3545C28.2122 38.592 27.6154 37.6968 27.1348 36.7021C26.7204 35.8899 26.2731 34.6963 26.1074 34.0498C25.9086 33.2376 25.8252 32.1769 25.8252 30.4863C25.8086 28.6795 25.892 27.8171 26.1074 27.0049C26.2732 26.4081 26.6372 25.3965 26.9355 24.7666C27.2339 24.1367 27.7476 23.2415 28.0625 22.7773C28.3774 22.3298 29.0076 21.5843 29.4551 21.1367C29.9191 20.6726 30.7314 20.0259 31.2783 19.6777C31.8253 19.3296 32.7862 18.815 33.4326 18.5498C34.079 18.3011 35.1066 17.9695 35.7529 17.8369C36.3992 17.6877 37.6421 17.5723 38.5371 17.5723ZM23.9023 16.5605H16.2783V43.085H7.82617L7.74316 16.6436L0.0361328 16.5605L0.00292969 12.7812C-0.0136348 10.6936 0.0363532 8.93732 0.119141 8.88574C0.202009 8.81943 5.57195 8.76953 23.9023 8.76953V16.5605ZM66.7461 25.0322C66.0169 25.0322 65.1713 25.131 64.8398 25.2471C64.525 25.3466 63.9289 25.6782 63.5146 25.9434C63.1169 26.2252 62.5699 26.7398 62.3213 27.1045C62.0727 27.4526 61.7575 28.0827 61.5918 28.4971C61.4096 28.9612 61.3096 29.7067 61.3096 30.5684C61.3261 31.5464 61.4263 32.1437 61.708 32.8896C61.9566 33.5361 62.3544 34.1326 62.8516 34.6299C63.3156 35.0941 63.9786 35.5258 64.5918 35.7744C65.3043 36.0561 65.9176 36.1719 66.7461 36.1719C67.5746 36.1719 68.2045 36.0561 68.9004 35.7744C69.5468 35.5258 70.1766 35.1272 70.6572 34.6299C71.1379 34.1491 71.5365 33.5196 71.7852 32.8896C72.0503 32.1769 72.166 31.5299 72.166 30.6514C72.166 29.9055 72.0495 29.0598 71.8838 28.5791C71.7346 28.1151 71.4038 27.4526 71.1553 27.0879C70.8901 26.7232 70.4086 26.2086 70.0439 25.96C69.6959 25.7114 69.0998 25.3963 68.7354 25.2637C68.3707 25.1311 67.5085 25.0322 66.7461 25.0322ZM38.6533 24.5176C38.0732 24.5342 37.2777 24.6174 36.9131 24.7334C36.5485 24.8495 35.9025 25.1978 35.4551 25.5127C35.0076 25.8276 34.4439 26.4244 34.1621 26.8389C33.8969 27.2367 33.6816 27.6349 33.6816 27.7012C33.6878 27.7674 35.9225 27.834 38.6533 27.834H43.626C43.3111 26.9885 42.8469 26.3743 42.3828 25.9102C41.7863 25.3135 41.3054 25.0153 40.6426 24.7998C40.1454 24.6506 39.25 24.5176 38.6533 24.5176Z" fill="white"/>
</svg>
